<svg width="24" height="24" viewBox="0 0 24 24" fill="none" xmlns="http://www.w3.org/2000/svg">
<path d="M4.38721 5.65335C4.32467 5.68368 4.03321 5.80689 3.97285 5.80689C3.80335 5.80689 3.83369 5.54608 3.85026 5.4532C3.88091 5.00819 4.18769 4.87028 4.55671 4.65543C5.06364 4.36335 6.79803 3.33447 7.22803 3.33447C7.62675 3.33447 7.93479 4.16383 7.93479 4.39462C7.93479 4.83994 7.93479 4.79335 5.52398 8.89382C4.98609 9.79948 3.72705 11.9651 3.72705 12.9937C3.72705 13.1772 3.7727 13.3461 3.7727 13.5303C3.7727 13.6685 3.6964 13.7452 3.55755 13.7452C3.48062 13.7452 3.31237 13.6538 3.23544 13.6076C2.65251 13.2851 1.99203 13.1772 1.99203 12.3789C1.99203 11.6117 2.65251 9.90644 3.06688 9.21593C4.18769 7.35896 5.43141 5.71401 5.87705 5.13172L5.84546 5.10107L4.38721 5.65366" fill="#FB9600"/>
<path d="M14.6781 5.9126C14.6781 8.57359 12.2667 12.2047 8.92641 12.4405C7.65236 12.5374 6.90338 11.2762 6.90338 10.0985C6.90338 8.53169 7.90129 6.81357 8.92641 5.67649C10.147 4.33176 12.2667 3.25098 13.1676 3.25098C13.7358 3.25098 14.4154 3.91583 14.4154 4.22137C14.4154 4.37304 14.0823 4.37304 13.9842 4.47061C14.609 4.66482 14.6781 5.35751 14.6781 5.91197V5.9126ZM11.8789 9.15464C12.4887 8.47509 13.667 6.82607 13.667 5.91166C13.667 5.62082 13.5288 5.0945 13.1401 5.0945C12.7805 5.0945 12.419 5.60613 12.2807 5.60613C12.1703 5.60613 12.1425 5.44038 12.1425 5.35751C9.64788 6.7579 8.55302 8.72527 8.46952 10.1526C8.45482 10.4159 8.51111 11.2199 8.89952 11.2199C9.31482 11.2199 10.2017 10.6929 10.5207 10.4034L11.8789 9.15464" fill="#FB9600"/>
<path d="M21.9999 5.73939C21.9999 8.2265 19.7464 11.6205 16.6238 11.8407C15.4311 11.9317 14.7318 10.7527 14.7318 9.6516C14.7318 8.1871 15.6644 6.58156 16.6238 5.51954C17.7637 4.26237 19.7464 3.25195 20.5883 3.25195C21.1199 3.25195 21.7544 3.87397 21.7544 4.15949C21.7544 4.30115 21.4436 4.30115 21.3526 4.39309C21.9358 4.57354 21.9999 5.22057 21.9999 5.7397V5.73939ZM19.3843 8.77065C19.9544 8.13581 21.0555 6.59407 21.0555 5.7397C21.0555 5.467 20.9254 4.97539 20.5626 4.97539C20.2261 4.97539 19.8893 5.4548 19.7596 5.4548C19.6551 5.4548 19.6295 5.29907 19.6295 5.22057C17.2981 6.52933 16.2742 8.36973 16.197 9.7032C16.1835 9.94963 16.2354 10.7011 16.5976 10.7011C16.9866 10.7011 17.8144 10.2083 18.1146 9.93681L19.3843 8.77065" fill="#FB9600"/>
<path d="M20.0784 14.3469C20.211 14.7178 20.0164 14.9958 19.6168 15.1372C19.3754 15.2238 18.8981 15.1506 18.6633 15.0959C15.6677 14.4238 10.4304 14.3253 7.41198 15.402C6.90942 15.5819 6.42814 15.823 5.94716 16.0638C5.975 16.0888 6.01972 16.1595 6.03629 16.2064C6.10259 16.3906 5.5647 16.6351 5.42522 16.6852C4.81916 16.9003 4.01639 16.7346 3.81249 16.1642C3.37217 14.9286 5.88806 13.9791 6.8597 13.6333C8.99375 12.8714 11.4727 12.7526 13.6747 12.8383C14.979 12.8771 19.654 13.1588 20.0784 14.3469Z" fill="#FB9600"/>
<path d="M21.0809 17.0239C21.2379 17.4051 21.0256 17.7144 20.5803 17.8986C20.3094 18.009 19.7734 17.9705 19.5067 17.9321C16.1255 17.4686 10.2399 17.7964 6.87248 19.183C6.31082 19.4141 5.77637 19.7081 5.24098 20.0027C5.27288 20.0258 5.32417 20.0977 5.34481 20.1453C5.42362 20.3354 4.82537 20.6381 4.66838 20.7025C3.99133 20.9809 3.08692 20.8711 2.84487 20.2841C2.32293 19.0163 5.12903 17.8042 6.212 17.3592C8.59248 16.3781 11.3754 16.0479 13.8507 15.9569C15.3164 15.8909 20.5778 15.8018 21.0809 17.0233" fill="#FB9600"/>
</svg>
