<svg width="24" height="24" viewBox="0 0 24 24" fill="none" xmlns="http://www.w3.org/2000/svg">
<ellipse cx="12" cy="12" rx="12" ry="12" fill="#219653"/>
<g clip-path="url(#clip0)">
<path d="M5.88867 14.2222V9.77781C5.88867 9.63046 5.9472 9.48916 6.05139 9.38497C6.15558 9.28078 6.29688 9.22225 6.44423 9.22225C6.59157 9.22225 6.73288 9.28078 6.83706 9.38497C6.94125 9.48916 6.99978 9.63046 6.99978 9.77781V14.2222C6.99978 14.3696 6.94125 14.5109 6.83706 14.6151C6.73288 14.7193 6.59157 14.7778 6.44423 14.7778C6.29688 14.7778 6.15558 14.7193 6.05139 14.6151C5.9472 14.5109 5.88867 14.3696 5.88867 14.2222ZM9.77756 16.4445V7.55558C9.77756 7.40824 9.71903 7.26693 9.61484 7.16275C9.51066 7.05856 9.36935 7.00003 9.22201 7.00003C9.07466 7.00003 8.93336 7.05856 8.82917 7.16275C8.72498 7.26693 8.66645 7.40824 8.66645 7.55558V16.4445C8.66645 16.5918 8.72498 16.7331 8.82917 16.8373C8.93336 16.9415 9.07466 17 9.22201 17C9.36935 17 9.51066 16.9415 9.61484 16.8373C9.71903 16.7331 9.77756 16.5918 9.77756 16.4445ZM12.5553 17.5556V6.44447C12.5553 6.29713 12.4968 6.15582 12.3926 6.05163C12.2884 5.94745 12.1471 5.88892 11.9998 5.88892C11.8524 5.88892 11.7111 5.94745 11.6069 6.05163C11.5028 6.15582 11.4442 6.29713 11.4442 6.44447V17.5556C11.4442 17.7029 11.5028 17.8442 11.6069 17.9484C11.7111 18.0526 11.8524 18.1111 11.9998 18.1111C12.1471 18.1111 12.2884 18.0526 12.3926 17.9484C12.4968 17.8442 12.5553 17.7029 12.5553 17.5556ZM15.3331 16.4445V7.55558C15.3331 7.40824 15.2746 7.26693 15.1704 7.16275C15.0662 7.05856 14.9249 7.00003 14.7776 7.00003C14.6302 7.00003 14.4889 7.05856 14.3847 7.16275C14.2805 7.26693 14.222 7.40824 14.222 7.55558V16.4445C14.222 16.5918 14.2805 16.7331 14.3847 16.8373C14.4889 16.9415 14.6302 17 14.7776 17C14.9249 17 15.0662 16.9415 15.1704 16.8373C15.2746 16.7331 15.3331 16.5918 15.3331 16.4445ZM17.5553 9.22225C17.408 9.22225 17.2667 9.28078 17.1625 9.38497C17.0583 9.48916 16.9998 9.63046 16.9998 9.77781V14.2222C16.9998 14.3696 17.0583 14.5109 17.1625 14.6151C17.2667 14.7193 17.408 14.7778 17.5553 14.7778C17.7027 14.7778 17.844 14.7193 17.9482 14.6151C18.0524 14.5109 18.1109 14.3696 18.1109 14.2222V9.77781C18.1109 9.63046 18.0524 9.48916 17.9482 9.38497C17.844 9.28078 17.7027 9.22225 17.5553 9.22225Z" fill="#FEFEFE"/>
</g>
<defs>
<clipPath id="clip0">
<rect width="13.3333" height="13.3333" fill="white" transform="translate(5.33325 5.33337)"/>
</clipPath>
</defs>
</svg>
