<svg width="18" height="18" viewBox="0 0 18 18" fill="none" xmlns="http://www.w3.org/2000/svg">
<path d="M2.8125 3.09766C4.52344 1.38672 6.58594 0.53125 9 0.53125C11.4141 0.53125 13.4648 1.38672 15.1523 3.09766C16.8633 4.78516 17.7188 6.83594 17.7188 9.25C17.7188 11.6641 16.8633 13.7266 15.1523 15.4375C13.4648 17.125 11.4141 17.9688 9 17.9688C6.58594 17.9688 4.52344 17.125 2.8125 15.4375C1.125 13.7266 0.28125 11.6641 0.28125 9.25C0.28125 6.83594 1.125 4.78516 2.8125 3.09766ZM5.0625 8.6875C5.0625 8.99219 5.16797 9.26172 5.37891 9.49609C5.61328 9.70703 5.88281 9.8125 6.1875 9.8125C6.49219 9.8125 6.75 9.70703 6.96094 9.49609C7.19531 9.26172 7.3125 8.99219 7.3125 8.6875C7.3125 8.64062 7.28906 8.54688 7.24219 8.40625C7.26562 8.40625 7.27734 8.40625 7.27734 8.40625C7.30078 8.40625 7.3125 8.40625 7.3125 8.40625C7.59375 8.40625 7.76953 8.27734 7.83984 8.01953C7.86328 7.92578 7.875 7.84375 7.875 7.77344C7.875 7.70312 7.85156 7.64453 7.80469 7.59766C7.78125 7.52734 7.73438 7.46875 7.66406 7.42188C7.61719 7.375 7.55859 7.33984 7.48828 7.31641L4.67578 6.47266C4.51172 6.42578 4.35938 6.4375 4.21875 6.50781C4.10156 6.57812 4.01953 6.68359 3.97266 6.82422C3.94922 6.91797 3.9375 7 3.9375 7.07031C3.96094 7.14062 3.98438 7.21094 4.00781 7.28125C4.03125 7.32812 4.06641 7.375 4.11328 7.42188C4.18359 7.46875 4.26562 7.50391 4.35938 7.52734L5.41406 7.87891C5.17969 8.08984 5.0625 8.35938 5.0625 8.6875ZM10.9688 14.1016C11.1094 14.2891 11.2852 14.3594 11.4961 14.3125C11.707 14.2656 11.8477 14.1484 11.918 13.9609C11.9883 13.7734 11.9531 13.5859 11.8125 13.3984C11.0859 12.5078 10.1484 12.0625 9 12.0625C7.85156 12.0625 6.90234 12.5078 6.15234 13.3984C6.10547 13.4688 6.07031 13.5508 6.04688 13.6445C6.02344 13.7383 6.02344 13.8203 6.04688 13.8906C6.07031 13.9609 6.10547 14.0312 6.15234 14.1016C6.19922 14.1719 6.25781 14.2305 6.32812 14.2773C6.39844 14.3008 6.46875 14.3242 6.53906 14.3477C6.63281 14.3477 6.71484 14.3359 6.78516 14.3125C6.87891 14.2656 6.96094 14.1953 7.03125 14.1016C7.52344 13.5156 8.17969 13.2227 9 13.2227C9.82031 13.2227 10.4766 13.5156 10.9688 14.1016ZM13.6758 7.52734C13.8164 7.48047 13.9219 7.39844 13.9922 7.28125C14.0625 7.14062 14.0742 6.98828 14.0273 6.82422C14.0039 6.73047 13.957 6.64844 13.8867 6.57812C13.8164 6.50781 13.7344 6.47266 13.6406 6.47266C13.5469 6.44922 13.4531 6.44922 13.3594 6.47266L10.5469 7.31641C10.3828 7.36328 10.2656 7.45703 10.1953 7.59766C10.125 7.71484 10.1133 7.85547 10.1602 8.01953C10.2305 8.27734 10.4062 8.40625 10.6875 8.40625C10.7109 8.40625 10.7344 8.40625 10.7578 8.40625C10.7109 8.52344 10.6875 8.61719 10.6875 8.6875C10.6875 8.99219 10.793 9.26172 11.0039 9.49609C11.2383 9.70703 11.5078 9.8125 11.8125 9.8125C12.1172 9.8125 12.375 9.70703 12.5859 9.49609C12.8203 9.26172 12.9375 8.99219 12.9375 8.6875C12.9375 8.35938 12.8203 8.08984 12.5859 7.87891L13.6758 7.52734Z" fill="#B8BBBF"/>
</svg>
