<svg width="40" height="40" viewBox="0 0 40 40" fill="none" xmlns="http://www.w3.org/2000/svg">
<circle opacity="0.5" cx="20" cy="20" r="20" fill="#32373D"/>
<rect x="6" y="6" width="28" height="28" rx="14" fill="#32373D"/>
<path d="M30 30.8004V28.3023C30.5273 27.9916 30.8363 27.4115 30.8 26.8004C30.8 25.9168 30.2629 25.2004 29.6 25.2004C28.9371 25.2004 28.4 25.9168 28.4 26.8004C28.3637 27.4115 28.6727 27.9916 29.2 28.3023V30.8004H26.4V18.6477L24 17.4477V19.6004H25.2V20.4004H24V22.0004H25.2V22.8004H24V24.4004H25.2V25.2004H24V26.8004H25.2V27.6004H24V29.2004H25.2V30.0004H24V30.8004H23.2V14.702L18.4 13.3309V14.8004H21.2V15.6004H18.4V17.2004H21.2V18.0004H18.4V19.6004H21.2V20.4004H18.4V22.0004H21.2V22.8004H18.4V24.4004H21.2V25.2004H18.4V26.8004H21.2V27.6004H18.4V29.2004H21.2V30.0004H18.4V30.8004H17.6V8.40039H10.4V10.0004H14V10.8004H10.4V12.4004H14V13.2004H10.4V14.8004H14V15.6004H10.4V17.2004H14V18.0004H10.4V19.6004H14V20.4004H10.4V22.0004H14V22.8004H10.4V24.4004H14V25.2004H10.4V26.8004H14V27.6004H10.4V29.2004H14V30.0004H10.4V30.8004H8V31.6004H32V30.8004H30Z" fill="#FEFEFE"/>
</svg>
