<svg width="24" height="24" viewBox="0 0 24 24" fill="none" xmlns="http://www.w3.org/2000/svg">
<path d="M12.8438 4.09375C12.8438 4.75 13.043 5.37109 13.4414 5.95703C13.8633 6.54297 14.3555 7.09375 14.918 7.60938C15.5039 8.125 16.0781 8.67578 16.6406 9.26172C17.2266 9.84766 17.7188 10.5977 18.1172 11.5117C18.5391 12.4023 18.75 13.3984 18.75 14.5C18.75 16.3516 18.082 17.9336 16.7461 19.2461C15.4336 20.582 13.8516 21.25 12 21.25C10.1484 21.25 8.55469 20.582 7.21875 19.2461C5.90625 17.9336 5.25 16.3516 5.25 14.5C5.25 12.6719 5.89453 11.0898 7.18359 9.75391C7.44141 9.47266 7.74609 9.40234 8.09766 9.54297C8.44922 9.68359 8.625 9.95312 8.625 10.3516V13.3398C8.625 13.9727 8.83594 14.5117 9.25781 14.957C9.70312 15.4023 10.2305 15.625 10.8398 15.625C11.4727 15.625 12.0117 15.4141 12.457 14.9922C12.9023 14.5469 13.125 14.0078 13.125 13.375C13.125 12.9766 13.0078 12.5898 12.7734 12.2148C12.5625 11.8398 12.3047 11.5 12 11.1953C11.6953 10.8906 11.3672 10.5742 11.0156 10.2461C10.6875 9.91797 10.4062 9.55469 10.1719 9.15625C9.96094 8.75781 9.82031 8.3125 9.75 7.82031C9.67969 7.32812 9.76172 6.73047 9.99609 6.02734C10.2539 5.30078 10.6875 4.50391 11.2969 3.63672C11.5312 3.28516 11.8477 3.16797 12.2461 3.28516C12.6445 3.40234 12.8438 3.67188 12.8438 4.09375Z" fill="#DA1414"/>
</svg>
