<svg width="24" height="24" viewBox="0 0 24 24" fill="none" xmlns="http://www.w3.org/2000/svg">
<path d="M23.25 18.5078C23.3203 18.6719 23.2734 18.7891 23.1094 18.8594L17.4141 21.2148C17.2266 21.3086 17.0977 21.2617 17.0273 21.0742C16.8867 20.7227 16.8867 20.3594 17.0273 19.9844C17.1914 19.6328 17.4492 19.3867 17.8008 19.2461L18.5742 18.9297L17.2031 15.2734C16.9219 15.2969 16.7695 15.3086 16.7461 15.3086C15.8086 15.3086 14.9648 15.0391 14.2148 14.5C13.4883 13.9609 12.9961 13.2344 12.7383 12.3203L12.0352 9.68359L11.332 12.3203C11.0742 13.2344 10.5703 13.9609 9.82031 14.5C9.09375 15.0391 8.26172 15.3086 7.32422 15.3086C7.30078 15.3086 7.14844 15.2969 6.86719 15.2734L5.49609 18.9297L6.26953 19.2461C6.62109 19.3867 6.86719 19.6328 7.00781 19.9844C7.17188 20.3594 7.18359 20.7227 7.04297 21.0742C6.97266 21.2383 6.84375 21.2852 6.65625 21.2148L0.960938 18.8594C0.796875 18.7891 0.75 18.6719 0.820312 18.5078C0.960938 18.1328 1.20703 17.875 1.55859 17.7344C1.91016 17.5938 2.27344 17.5938 2.64844 17.7344L3.42188 18.0508L4.79297 14.4648C3.92578 13.8555 3.375 13.0469 3.14062 12.0391C2.90625 11.0078 3.04688 10.0234 3.5625 9.08594L6.62109 3.8125C6.76172 3.57812 6.96094 3.41406 7.21875 3.32031C7.5 3.22656 7.76953 3.22656 8.02734 3.32031L12.0352 5.00781L16.043 3.32031C16.3008 3.22656 16.5586 3.22656 16.8164 3.32031C17.0977 3.41406 17.3086 3.57812 17.4492 3.8125L20.5078 9.08594C21.0234 10.0234 21.1641 11.0078 20.9297 12.0391C20.6953 13.0469 20.1445 13.8555 19.2773 14.4648L20.6484 18.0508L21.4219 17.7344C21.7969 17.5938 22.1602 17.5938 22.5117 17.7344C22.8633 17.875 23.1094 18.1328 23.25 18.5078ZM10.4883 8.94531L11.1562 6.44922L7.81641 5.07812L6.55078 7.32812L10.4883 8.94531ZM13.582 8.94531L17.5195 7.32812L16.2539 5.07812L12.9141 6.44922L13.582 8.94531Z" fill="#00B4C4"/>
</svg>
