<svg width="24" height="24" viewBox="0 0 24 24" fill="none" xmlns="http://www.w3.org/2000/svg">
<path d="M5.8125 6.09766C7.52344 4.38672 9.58594 3.53125 12 3.53125C14.4141 3.53125 16.4648 4.38672 18.1523 6.09766C19.8633 7.78516 20.7188 9.83594 20.7188 12.25C20.7188 14.6641 19.8633 16.7266 18.1523 18.4375C16.4648 20.125 14.4141 20.9688 12 20.9688C9.58594 20.9688 7.52344 20.125 5.8125 18.4375C4.125 16.7266 3.28125 14.6641 3.28125 12.25C3.28125 9.83594 4.125 7.78516 5.8125 6.09766ZM12.7031 10.4922C12.6797 10.6797 12.75 10.832 12.9141 10.9492C13.1016 11.043 13.2656 11.0195 13.4062 10.8789L13.7578 10.5625C14.0156 10.3516 14.3672 10.2461 14.8125 10.2461C15.2578 10.2461 15.6211 10.3516 15.9023 10.5625L16.2188 10.8789C16.3594 11.0195 16.5117 11.043 16.6758 10.9492C16.8633 10.832 16.9453 10.6797 16.9219 10.4922C16.875 10.2109 16.7344 9.95312 16.5 9.71875C16.2891 9.48438 16.0312 9.30859 15.7266 9.19141C15.4219 9.07422 15.1172 9.01562 14.8125 9.01562C14.3438 9.01562 13.8867 9.15625 13.4414 9.4375C13.0195 9.71875 12.7734 10.0703 12.7031 10.4922ZM9.96094 9.22656C9.75 8.99219 9.49219 8.875 9.1875 8.875C8.88281 8.875 8.61328 8.99219 8.37891 9.22656C8.16797 9.4375 8.0625 9.69531 8.0625 10C8.0625 10.3047 8.16797 10.5742 8.37891 10.8086C8.61328 11.0195 8.88281 11.125 9.1875 11.125C9.49219 11.125 9.75 11.0195 9.96094 10.8086C10.1953 10.5742 10.3125 10.3047 10.3125 10C10.3125 9.69531 10.1953 9.4375 9.96094 9.22656ZM17.3086 14.0078C17.332 13.8438 17.2852 13.7031 17.168 13.5859C17.0508 13.4453 16.9102 13.375 16.7461 13.375H7.25391C7.08984 13.375 6.94922 13.4453 6.83203 13.5859C6.71484 13.7031 6.66797 13.8438 6.69141 14.0078C6.85547 15.2734 7.40625 16.3281 8.34375 17.1719C9.30469 18.0156 10.4297 18.4375 11.7188 18.4375H12.2812C13.5703 18.4375 14.6836 18.0156 15.6211 17.1719C16.582 16.3281 17.1445 15.2734 17.3086 14.0078Z" fill="#FFA600"/>
</svg>
