<svg width="24" height="24" viewBox="0 0 24 24" fill="none" xmlns="http://www.w3.org/2000/svg">
<path d="M7.46484 8.38281C7.37109 7.79687 7.11328 7.28125 6.69141 6.83594C5.87109 6.01563 5.39062 5.03125 5.25 3.88281C5.22656 3.71875 5.27344 3.57812 5.39062 3.46094C5.50781 3.32031 5.64844 3.25 5.8125 3.25H6.41016C6.73828 3.25 6.92578 3.41406 6.97266 3.74219C7.06641 4.46875 7.37109 5.08984 7.88672 5.60547C8.61328 6.33203 9.04688 7.21094 9.1875 8.24219C9.21094 8.40625 9.16406 8.55859 9.04688 8.69922C8.92969 8.81641 8.78906 8.875 8.625 8.875H8.02734C7.69922 8.875 7.51172 8.71094 7.46484 8.38281ZM11.4023 8.38281C11.3086 7.79687 11.0508 7.28125 10.6289 6.83594C9.80859 6.01563 9.32812 5.03125 9.1875 3.88281C9.1875 3.76563 9.21094 3.66016 9.25781 3.56641C9.30469 3.47266 9.375 3.40234 9.46875 3.35547C9.5625 3.28516 9.65625 3.25 9.75 3.25H10.3477C10.6758 3.25 10.8633 3.41406 10.9102 3.74219C11.0039 4.46875 11.3086 5.08984 11.8242 5.60547C12.5508 6.33203 12.9844 7.21094 13.125 8.24219C13.1484 8.40625 13.1016 8.55859 12.9844 8.69922C12.8672 8.81641 12.7266 8.875 12.5625 8.875H11.9648C11.6367 8.875 11.4492 8.71094 11.4023 8.38281ZM17.0625 10C18.1406 10 19.0664 10.3867 19.8398 11.1602C20.6133 11.9336 21 12.8594 21 13.9375C21 15.0156 20.6133 15.9414 19.8398 16.7148C19.0664 17.4883 18.1406 17.875 17.0625 17.875H16.5C16.5 18.8125 16.1719 19.6094 15.5156 20.2656C14.8594 20.9219 14.0625 21.25 13.125 21.25H6.375C5.4375 21.25 4.64062 20.9219 3.98438 20.2656C3.32812 19.6094 3 18.8125 3 17.875V11.125C3 10.8203 3.10547 10.5625 3.31641 10.3516C3.55078 10.1172 3.82031 10 4.125 10H17.0625ZM17.0625 15.625C17.5312 15.625 17.9297 15.4609 18.2578 15.1328C18.5859 14.8047 18.75 14.4062 18.75 13.9375C18.75 13.4688 18.5859 13.0703 18.2578 12.7422C17.9297 12.4141 17.5312 12.25 17.0625 12.25H16.5V15.625H17.0625Z" fill="#CC6000"/>
</svg>
