<svg width="24" height="24" viewBox="0 0 24 24" fill="none" xmlns="http://www.w3.org/2000/svg">
<path fill-rule="evenodd" clip-rule="evenodd" d="M21.8824 13.8182C21.8824 12.1529 21.02 10.6268 19.5872 9.4406C19.7098 9.07481 19.7723 8.69155 19.7722 8.30576C19.7722 6.33171 18.172 4.73145 16.1979 4.73145C14.6825 4.73145 13.3883 5.67499 12.8683 7.00624C12.5708 6.98772 12.2728 6.97839 11.9747 6.97826C11.6903 6.97826 11.4088 6.98702 11.1304 7.00324C10.6096 5.67359 9.31624 4.73145 7.80199 4.73145C5.82794 4.73145 4.22767 6.33171 4.22767 8.30576C4.22767 8.6906 4.28922 9.06096 4.40177 9.4083C2.94541 10.5991 2.06702 12.1377 2.06702 13.8182C2.06702 14.0963 2.34466 14.5939 2.34466 14.5939C2.46006 14.7347 2.57601 14.8689 2.69242 14.9969C3.2446 18.4996 7.18991 21.2155 11.9748 21.2155C16.7762 21.2155 20.7322 18.4808 21.2628 14.9606C21.3668 14.8436 21.4704 14.7214 21.5734 14.5939L21.5726 14.5939C21.7734 14.3559 21.8824 14.0974 21.8824 13.8182ZM16.7892 16.3046L7.8325 16.5411C7.8325 16.5411 7.40018 18.6108 11.996 18.6108C16.5918 18.6108 16.7892 16.3046 16.7892 16.3046ZM10.0461 14.4026C10.0461 14.6757 9.82471 14.8971 9.55157 14.8971C9.27843 14.8971 9.05704 14.6757 9.05704 14.4026C9.05704 14.1294 9.27843 13.9081 9.55157 13.9081C9.82471 13.9081 10.0461 14.1294 10.0461 14.4026ZM14.3981 13.9081C14.1249 13.9081 13.9035 14.1294 13.9035 14.4026C13.9035 14.6757 14.1249 14.8971 14.3981 14.8971C14.6712 14.8971 14.8926 14.6757 14.8926 14.4026C14.8926 14.1294 14.6712 13.9081 14.3981 13.9081ZM8.9545 7.57894C8.9545 6.94247 8.43854 6.42651 7.80207 6.42651C7.1656 6.42651 6.64965 6.94247 6.64965 7.57894V8.99554C6.64965 9.63201 7.1656 10.148 7.80207 10.148C8.43854 10.148 8.9545 9.63201 8.9545 8.99554V7.57894ZM15.0455 7.57894C15.0455 6.94247 15.5615 6.42651 16.198 6.42651C16.8344 6.42651 17.3504 6.94247 17.3504 7.57894V8.99554C17.3504 9.63201 16.8344 10.148 16.198 10.148C15.5615 10.148 15.0455 9.63201 15.0455 8.99554V7.57894Z" fill="#219653"/>
</svg>
