<svg width="24" height="24" viewBox="0 0 24 24" fill="none" xmlns="http://www.w3.org/2000/svg">
<path d="M3 5.21875C3 4.98437 3.08203 4.78516 3.24609 4.62109C3.41016 4.45703 3.60938 4.375 3.84375 4.375H6.65625C6.89062 4.375 7.08984 4.45703 7.25391 4.62109C7.41797 4.78516 7.5 4.98437 7.5 5.21875V13.6562C7.5 13.8906 7.41797 14.0898 7.25391 14.2539C7.08984 14.418 6.89062 14.5 6.65625 14.5H3.84375C3.60938 14.5 3.41016 14.418 3.24609 14.2539C3.08203 14.0898 3 13.8906 3 13.6562V5.21875ZM4.65234 11.6523C4.48828 11.8164 4.40625 12.0156 4.40625 12.25C4.40625 12.4844 4.48828 12.6836 4.65234 12.8477C4.81641 13.0117 5.01562 13.0938 5.25 13.0938C5.48438 13.0938 5.68359 13.0117 5.84766 12.8477C6.01172 12.6836 6.09375 12.4844 6.09375 12.25C6.09375 12.0156 6.01172 11.8164 5.84766 11.6523C5.68359 11.4883 5.48438 11.4062 5.25 11.4062C5.01562 11.4062 4.81641 11.4883 4.65234 11.6523ZM13.9688 21.25C13.5 21.25 13.1016 20.5703 12.7734 19.2109C12.5156 18.1797 12.2227 17.4883 11.8945 17.1367C11.5664 16.832 11.2383 16.4453 10.9102 15.9766C10.582 15.5078 10.2305 15.0273 9.85547 14.5352C9.50391 14.0195 9.14062 13.5625 8.76562 13.1641C8.67188 13.0938 8.625 13 8.625 12.8828V5.35938C8.625 5.24219 8.66016 5.14844 8.73047 5.07812C8.82422 4.98437 8.92969 4.9375 9.04688 4.9375C9.44531 4.9375 10.0547 4.75 10.875 4.375C12.5625 3.625 13.9688 3.25 15.0938 3.25H15.1992C15.6914 3.25 16.0781 3.26172 16.3594 3.28516C16.6641 3.28516 17.0273 3.32031 17.4492 3.39062C17.8711 3.4375 18.2227 3.54297 18.5039 3.70703C18.7852 3.84766 19.0195 4.04688 19.207 4.30469C19.4883 4.72656 19.5586 5.24219 19.418 5.85156C19.6992 6.17969 19.8984 6.58984 20.0156 7.08203C20.1328 7.55078 20.1211 8.01953 19.9805 8.48828C20.2852 8.88672 20.4609 9.35547 20.5078 9.89453C20.5547 10.4336 20.4844 10.9023 20.2969 11.3008H20.332C20.7773 11.7461 21 12.3203 21 13.0234C21 13.5625 20.7891 14.043 20.3672 14.4648C19.9688 14.8633 19.4766 15.0625 18.8906 15.0625H15.3398C15.3633 15.2266 15.5625 15.6836 15.9375 16.4336C16.3125 17.1602 16.5 17.8164 16.5 18.4023C16.5 18.9883 16.4062 19.4922 16.2188 19.9141C16.0547 20.3359 15.8203 20.6289 15.5156 20.793C15.2344 20.9805 14.9648 21.0977 14.707 21.1445C14.4727 21.2148 14.2266 21.25 13.9688 21.25Z" fill="#DA1414"/>
</svg>
