<svg width="335" height="98" viewBox="0 0 335 98" fill="none" xmlns="http://www.w3.org/2000/svg">
<mask id="mask0" mask-type="alpha" maskUnits="userSpaceOnUse" x="0" y="0" width="335" height="98">
<rect width="335" height="98" rx="4" fill="#C4C4C4"/>
</mask>
<g mask="url(#mask0)">
<path d="M202.579 75.4669C202.579 75.4669 210.845 66.2432 196.722 64.4845C182.599 62.7257 180.181 51.5908 170.473 48.3007C161.487 45.2493 145.651 51.6046 144.195 54.2954C144.195 54.2954 148.002 65.4804 145.283 74.4988C142.564 83.5171 157.975 93.0848 163.411 91.9946C163.411 91.9946 153.982 92.7713 149.491 90.1277C149.491 90.1277 157.108 97.3402 165.946 94.1056C174.784 90.8711 182.749 89.1124 184.141 93.3012C185.533 97.49 202.579 75.4669 202.579 75.4669Z" fill="#AA443E"/>
<path d="M181.028 100.142C181.692 99.9584 182.398 97.5117 182.964 94.893C183.644 91.7445 184.135 88.3574 184.135 88.3574L187.164 88.4157L195.252 88.571L195.915 88.5849C195.55 90.189 195.292 91.8153 195.143 93.4533C194.906 95.6386 194.97 97.8458 195.333 100.014C195.653 101.678 196.169 102.716 196.699 102.982C197.145 103.185 180.247 100.044 181.028 100.142Z" fill="#FFB27D"/>
<path d="M195.335 100.013C190.315 98.7811 184.135 88.3618 184.135 88.3618C185.133 88.1268 186.175 88.1468 187.164 88.42C189.93 89.0886 192.959 91.1941 195.14 93.4577C194.905 95.6414 194.971 97.8468 195.335 100.013Z" fill="#ED975D"/>
<path d="M197.703 95.0721C197.703 95.0721 183.265 94.8114 183.563 85.8679C183.862 76.9244 182.205 70.8714 191.436 70.6578C200.668 70.4442 202.347 73.9173 202.974 76.9271C203.602 79.937 201.479 94.9085 197.703 95.0721Z" fill="#FFB27D"/>
<path d="M200.141 102.992C200.141 102.992 222.923 92.4504 224.332 90.2312C225.74 88.0119 226.053 61.1038 225.509 57.3145H229.045C229.045 57.3145 235.937 86.9023 233.942 94.1148C231.948 101.327 203.462 116.307 203.462 116.307L200.141 102.992Z" fill="#FFB27D"/>
<path d="M222.374 152.709C215.006 143.225 210.692 130.431 208.151 120.389L208.084 120.111C219.136 112.358 213.358 96.6152 213.358 96.6152C208.55 97.5917 197.146 102.244 197.129 102.249C197.129 102.249 193.057 107.72 187.251 106.91C181.444 106.1 180.175 99.6195 180.172 99.6029C180.153 99.6029 174.374 98.435 170.91 99.6029C168.805 100.313 155.248 111.512 155.156 112.594C155.064 113.676 159.746 125.745 169.025 127.715C167.996 158.493 177.113 202.337 177.113 202.337C202.252 204.492 222.068 190.458 231.497 182.072C233.63 180.212 235.642 178.219 237.521 176.105C237.521 176.105 231.24 164.127 222.374 152.709Z" fill="#6BB7BF"/>
<path d="M193.729 89.1568C193.729 89.1568 194.091 90.5438 195.045 90.7796C195.999 91.0154 198.489 91.3344 198.715 91.143C198.941 90.9516 199.714 89.756 199.714 89.756C199.714 89.756 195.725 88.7518 193.729 89.1568Z" fill="white"/>
<path d="M225.509 57.3209C225.509 57.3209 223.992 56.9381 223.763 54.4138C223.612 52.7244 222.857 51.5898 223.205 51.5038C223.554 51.4178 224.586 53.3014 224.973 53.723C225.302 54.0726 226.061 48.175 226.878 48.3109C227.695 48.4468 229.642 49.4399 229.054 57.3293L225.509 57.3209Z" fill="#FFB27D"/>
<path d="M202.579 75.4659C202.579 75.4659 200.439 77.1109 193.729 75.4659C187.019 73.8209 188.11 86.9421 182.261 85.3193C176.413 83.6965 167.056 65.5682 180.167 65.2963C193.277 65.0244 200.59 67.6404 202.579 75.4659Z" fill="#AA443E"/>
<path d="M287.077 134.187C287.077 134.187 297.187 138.101 306.29 127.987C306.078 128.309 299.909 137.735 294.63 139.441C295.31 139.916 295.966 140.415 296.599 140.925C299.309 143.097 301.675 145.483 304.327 146.903C310.911 150.429 316.562 152.055 321.339 152.238C325.846 150.227 328.443 145.894 329.904 142.126C330.61 141.572 331.298 141.034 331.99 140.501C331.794 144.668 330.103 148.627 327.224 151.661C333.758 149.996 337.936 145.003 339.944 138.759C340.067 138.379 340.178 137.996 340.284 137.61C340.343 137.402 340.399 137.194 340.446 136.983C340.809 135.525 341.062 134.041 341.202 132.545C341.697 127.189 340.97 121.791 339.077 116.752C338.99 116.525 338.901 116.3 338.798 116.081V116.053C338.058 114.219 337.138 112.462 336.051 110.808C334.098 107.856 333.755 103.978 334.204 100.047C335.183 91.4476 339.936 82.6095 339.936 82.6095C339.285 81.6534 338.514 80.7844 337.64 80.0241C334.62 77.3055 328.462 73.6438 318.218 75.5385C302.628 78.3985 297.237 89.4364 299.036 103.038C300.835 116.639 300.431 124.511 290.025 128.084L289.916 128.12C287.2 129.08 286.252 131.918 287.077 134.187Z" fill="#163560"/>
<path d="M354.238 83.0887C354.238 83.0887 358.723 76.0981 351.385 72.442C339.055 66.2947 338.578 82.7947 334.894 83.9431C331.21 85.0916 326.868 92.4761 331.33 97.6108C335.792 102.746 341.554 101.528 342.751 104.127C343.947 106.726 347.902 105.478 347.623 104.543C347.517 104.182 346.552 103.655 346.011 102.296C345.712 101.547 346.527 100.707 346.226 100.693C343.269 100.582 341.498 96.0962 344.675 96.4207C347.852 96.7453 349.171 93.7244 349.037 92.4761C348.903 91.2277 345.869 88.3483 348.686 86.7421C351.502 85.136 352.64 85.2358 354.238 83.0887Z" fill="#163560"/>
<path d="M309.855 147.495C309.855 147.495 319.998 148.433 321.685 147.772C323.373 147.112 326.647 144.646 329.896 142.124C330.601 141.57 331.29 141.031 331.982 140.499C335.239 137.963 338.07 135.783 338.65 135.891C338.694 135.902 338.735 135.924 338.768 135.955C339.111 136.232 339.52 137.303 339.928 138.754C340.996 142.563 342.047 148.946 341.86 149.947C341.855 149.977 341.844 150.006 341.83 150.033C341.406 150.627 334.994 155.842 332.202 158.097C331.421 158.735 330.919 159.135 330.919 159.135L331.106 159.232L331.594 159.476C332.077 159.717 332.799 160.072 333.72 160.508C335.834 161.507 338.977 162.919 342.558 164.289C348.928 166.736 356.681 169.046 362.432 168.647C362.847 168.619 363.252 168.578 363.645 168.519C363.645 168.519 362.702 163.104 364.063 160.719C365.424 158.333 374.541 136.432 374.94 134.829C375.3 133.4 375.425 131.411 375.556 129.636C375.59 129.164 375.623 128.712 375.662 128.285C375.785 126.967 375.941 125.93 376.295 125.594L376.348 125.544C376.358 125.534 376.368 125.525 376.379 125.516C376.403 125.489 376.429 125.464 376.457 125.441C376.502 125.394 376.555 125.339 376.616 125.283C376.63 125.268 376.645 125.254 376.661 125.242C378.911 123.022 390.237 111.757 395.132 105.185C395.162 105.138 395.196 105.097 395.224 105.058C396.273 103.637 397.012 102.447 397.277 101.624C397.385 101.285 397.486 100.93 397.575 100.558C398.802 95.5428 398.35 88.0002 398.35 88.0002C398.244 87.9614 397.469 87.7228 394.552 87.3289C392.976 87.166 391.389 87.152 389.811 87.2873C389.811 87.2873 387.989 98.0145 387.465 98.597C386.071 100.137 370.48 112.267 367.68 113.105C367.602 113.131 367.52 113.145 367.438 113.147H367.399H366.356H366.297C364.93 113.147 363.712 113.036 363.712 113.036C363.712 113.036 367.909 118.623 367.432 123.075C366.955 127.527 354.015 127.369 350.501 124.67C348.646 123.244 346.459 120.567 344.808 118.359C343.916 117.172 343.185 116.121 342.742 115.469C342.443 115.033 342.279 114.778 342.279 114.778L342.131 114.825L342.033 114.858L341.913 114.897C341.311 115.103 340.078 115.535 338.846 116.062C338.185 116.34 337.521 116.65 336.952 116.964C336.582 117.16 336.231 117.389 335.903 117.649C333.064 119.971 319.563 136.293 317.85 137.431C317.85 137.431 317.85 137.431 317.837 137.431C317.807 137.451 317.775 137.467 317.742 137.481C316.626 137.819 309.908 139.392 309.908 139.392C309.583 140.663 309.396 141.965 309.35 143.276C309.235 145.836 309.818 147.415 309.855 147.495Z" fill="#C65447"/>
<path d="M312.115 15.2294C312.115 15.2294 311.557 10.999 313.715 7.68685C315.308 5.22906 319.014 3.90029 319.237 3.88365L316.688 0C316.688 0 311.389 3.26226 310.098 7.70903C309.705 9.07386 309.911 11.712 310.377 13.0934C310.68 13.9898 311.296 14.7479 312.115 15.2294Z" fill="#6BB7BF"/>
<path d="M319.674 18.9606L319.175 25.2465C319.175 25.2465 308.697 19.0327 309.954 8.44141C309.954 8.44141 314.489 17.8371 319.674 18.9606Z" fill="#86D1CD"/>
<path d="M117.794 14.9128C117.794 14.9128 115.599 13.5258 115.368 11.8613C115.368 11.8613 113.232 11.9751 112.771 12.663C112.771 12.663 113.753 15.4204 114.905 15.9364C114.905 15.9447 117.504 16.1167 117.794 14.9128Z" fill="#ED7D2B"/>
<path d="M134.805 31.3879C133.084 31.2963 129.275 36.7085 128.55 37.1579C127.824 37.6073 128.187 35.1744 127.618 33.4601C127.049 31.7457 125.738 35.6266 125.738 38.0594C125.738 40.4922 127.618 42.4812 127.618 42.4812C127.579 42.906 127.437 43.3152 127.205 43.6741C124.974 47.3524 120.289 55.6967 116.524 62.4376C113.408 67.9857 110.946 72.4491 110.946 72.4491C106.392 72.6544 100.981 73.3701 96.0864 74.1524C91.019 74.9846 86.4981 75.8889 83.9658 76.4354C82.6299 76.7128 81.8434 76.8793 81.8434 76.8793C81.8434 76.8793 81.5338 77.7975 81.1936 79.1928C80.9537 80.1471 80.7139 81.3732 80.5075 82.6659C79.8912 87.1959 80.1645 92.7135 85.1985 93.0214C86.1395 93.0636 87.0822 92.9947 88.0069 92.8161C90.7791 92.4416 94.3071 91.4291 97.969 90.092C103.458 88.1113 108.83 85.8256 114.061 83.2457C117.176 81.6783 119.435 80.4522 120.018 79.9418C120.771 79.2954 122.553 74.4603 124.503 68.5682C127.688 58.9312 131.386 46.4314 131.969 44.4341C131.969 44.4341 137.075 36.0871 137.268 34.9164C137.46 33.7458 136.529 31.4766 134.805 31.3879Z" fill="#FFB27D"/>
<path d="M71.384 11.1883C69.8863 10.7833 78.0467 2.92998 72.8789 2.98269C68.7373 3.02707 64.169 11.8596 64.169 11.8596C63.4857 13.119 62.7327 14.3784 62.7327 14.3784C55.7827 23.2332 51.4348 30.3181 48.7295 35.8661C43.4584 46.6849 44.4513 51.4978 44.4513 51.4978C44.3836 53.6754 44.5321 55.8544 44.8947 58.0029C46.2892 68.4583 50.785 83.5102 51.8113 86.9167C51.9479 87.3938 52.0177 87.6324 52.0177 87.6324L64.275 78.8803C64.3828 77.9172 64.3715 76.9446 64.2415 75.9842C64.0351 73.9065 63.4049 71.3183 62.6658 68.6303C62.6323 68.4916 62.5626 68.3529 62.5291 68.2197C61.3633 64.1668 59.7904 59.8421 58.421 56.2914C58.1812 55.6811 57.9748 55.1013 57.735 54.5548C57.6757 54.448 57.6298 54.3343 57.5983 54.2164C56.2624 50.8875 55.2696 48.5962 55.2696 48.5962C55.6795 47.7112 56.1257 46.8236 56.5357 45.9054C56.6054 45.7334 56.6724 45.5641 56.7421 45.3949C57.021 44.7819 57.2999 44.1688 57.5286 43.5557C57.5692 43.4397 57.6157 43.3258 57.668 43.2145C57.7389 43.0849 57.7959 42.9482 57.8382 42.8068C57.8575 42.7885 57.8694 42.7638 57.8716 42.7374C62.055 32.6926 65.2344 21.3773 66.534 16.4146C66.686 16.0133 66.9419 15.6592 67.2759 15.3882C67.2898 15.3882 73.4255 12.7917 75.0849 11.8513C76.7443 10.9109 72.8788 11.5961 71.384 11.1883Z" fill="#FFB27D"/>
<path d="M72.721 111.797C72.721 111.797 56.1436 94.692 41.9647 84.2865C40.9942 81.679 40.4671 78.2114 40.4671 78.2114C39.6722 79.6539 39.7949 81.5181 40.0571 82.9273C36.2056 80.2281 32.6051 78.1254 29.6516 77.124C28.6588 71.3845 34.2087 65.3537 34.2087 65.3537C29.4425 67.2762 27.5153 73.6037 26.8766 76.4998C26.4005 76.4588 25.9211 76.4746 25.4487 76.547C25.4487 76.547 24.969 57.1703 54.7324 57.1703C66.3093 57.1703 64.6499 37.1668 81.1268 38.6009C81.1268 38.6009 99.1238 42.099 95.7631 57.7085C92.4025 73.318 97.9245 76.8161 99.8433 80.3169C101.762 83.8177 93.5961 108.296 72.721 111.797Z" fill="#AA443E"/>
<path d="M87.3622 79.9636L70.0067 86.7988L68.166 79.1508C67.9819 76.84 68.219 74.274 68.6094 71.9133C69.0533 69.2473 69.6852 66.6156 70.5003 64.0378C70.5254 63.9602 70.5366 63.9213 70.5366 63.9213H70.9828L72.4247 63.8825L82.186 63.6328C81.8245 64.9499 81.6094 66.3025 81.5445 67.6663C81.4122 70.0352 81.8748 72.3997 82.8904 74.5464C83.906 76.6932 85.4428 78.5549 87.3622 79.9636Z" fill="#FFB27D"/>
<path d="M60.7116 75.3438C60.7116 75.3438 37.3933 88.1792 55.2843 140.137L92.5667 142.156C92.5667 142.156 76.6391 120.117 80.4488 112.541C84.2584 104.965 91.8833 81.1942 91.8833 81.1942L60.7116 75.3438Z" fill="#E5B0B4"/>
<path d="M124.521 68.6685C124.521 68.6685 121.272 79.5261 119.713 80.3944C118.154 81.2627 97.7058 91.6958 91.5088 92.5364C91.5088 92.5364 89.3418 92.7555 88.5748 93.1217C88.4735 93.1558 88.3863 93.2221 88.3266 93.3103C88.3188 93.3252 88.3132 93.341 88.3099 93.3575C87.8692 94.5059 82.3806 113.106 82.2523 118.046C82.1631 121.486 97.4046 143.617 97.2233 146.128C97.2114 146.34 97.1593 146.548 97.0699 146.741C96.2109 148.625 92.0164 148.464 88.5665 146.666C85.7507 145.23 82.815 144.039 79.7925 143.107C75.7932 141.881 71.303 141.074 67.6412 141.82C60.6047 143.254 53.3897 141.462 50.863 133.745C48.3362 126.027 48.6988 110.24 47.9792 107.011C47.2597 103.782 46.6238 93.6515 50.9494 86.9217C50.9494 86.9217 51.4877 85.8426 50.5897 83.5929C49.6916 81.3431 43.1042 57.7527 44.0942 50.665C44.0942 50.665 44.3731 43.7688 48.7294 35.8711C50.5739 36.3628 52.2806 37.2681 53.7188 38.5175C56.0169 40.5565 57.5174 42.6786 57.8799 42.7674C57.8799 42.7674 55.4591 48.1518 55.5958 48.5928C55.7324 49.0339 63.9402 72.1999 64.392 73.5453C64.392 73.5453 67.6216 73.2679 68.3216 73.9642C68.3216 73.9642 68.0428 80.6025 83.1978 75.0988C83.1978 75.0988 84.132 74.949 84.1767 75.7285C84.1767 75.7285 103.719 72.6243 110.515 72.1416C110.515 72.1416 110.878 72.1 112.978 68.1914C115.488 63.5449 116.503 62.4436 116.503 62.4436C116.503 62.4436 122.681 62.4436 124.521 68.6685Z" fill="#FFB93E"/>
<path d="M97.2206 146.124C97.2087 146.336 97.1567 146.544 97.0672 146.737C96.2082 148.621 92.0137 148.46 88.5638 146.663C85.748 145.226 82.8123 144.035 79.7898 143.103C77.3746 137.134 74.0447 128.071 72.7729 120.7C70.8374 109.465 86.0789 95.3511 88.3072 93.3594C87.8666 94.5078 82.378 113.108 82.2497 118.048C82.1604 121.483 97.4019 143.614 97.2206 146.124Z" fill="#FFA412"/>
<path d="M81.536 67.6655C81.536 67.6655 73.4119 71.7766 68.6094 71.9209C69.0533 69.2549 69.6851 66.6232 70.5003 64.0454C70.6587 63.995 70.8198 63.9534 70.9828 63.9205C71.314 63.8482 71.6538 63.8221 71.9923 63.8429C72.1346 63.8429 72.2713 63.8651 72.4246 63.8817C76.4574 64.345 81.536 67.6655 81.536 67.6655Z" fill="#ED975D"/>
<path d="M66.6069 66.0072C66.6069 66.0072 80.4623 72.9895 84.7015 64.3428C88.9406 55.6961 93.5842 50.7722 84.919 45.9454C76.2538 41.1186 72.9015 43.5819 70.7791 46.1285C68.6568 48.6751 63.1123 63.9683 66.6069 66.0072Z" fill="#FFB27D"/>
<path d="M77.4688 45.8711C77.4688 45.8711 81.669 50.0321 80.4362 53.974C79.2035 57.916 81.1976 65.7776 86.6109 66.6736C92.0242 67.5696 98.4583 49.3719 91.3354 45.8683C84.2124 42.3647 72.5743 40.6392 69.0602 45.0361C65.5462 49.433 66.9016 55.0004 66.9016 55.0004C66.9016 55.0004 71.7711 45.602 77.4688 45.8711Z" fill="#AA443E"/>
<path d="M71.9451 63.1499C71.9451 63.1499 71.3874 64.0792 68.9053 63.1055C68.9053 63.1055 66.8303 62.29 67.257 61.2025C67.257 61.2025 69.569 61.0805 71.9451 63.1499Z" fill="white"/>
<path d="M180.075 -3C180.075 -3 180.045 2.82547 182.281 2.92534C184.518 3.0252 187.53 0.461998 187.176 -0.850122C186.822 -2.16224 180.075 -3 180.075 -3Z" fill="#ED7D2B"/>
<path d="M273.209 87.5492C273.219 87.0881 273.126 86.6307 272.935 86.2101C272.882 86.0871 272.8 85.9786 272.696 85.8937C272.591 85.8088 272.468 85.7499 272.336 85.7221C272.433 85.6416 281.95 77.763 282.494 72.5916C282.79 69.7867 275.551 68.6412 269.732 67.7216C264.6 66.91 260.184 66.9374 259.729 64.8106C259.309 62.8191 262.861 60.3207 265.485 58.1957C267.034 56.9457 268.781 55.5312 268.628 54.9935C268.44 54.3394 266.641 54.3993 265.197 54.4456C263.389 54.5055 261.828 54.5569 261.537 53.675C261.021 52.0928 263.086 49.9523 263.169 49.8633L263.272 49.9626C263.253 49.9831 261.561 52.2178 261.993 53.5243C262.165 54.0671 263.84 54.0124 265.182 53.9678C267.043 53.9079 269.313 53.7332 269.603 54.747C269.832 55.5484 268.053 56.7385 265.788 58.5656C263.391 60.5005 260.409 62.9099 260.73 64.6222C260.959 65.8431 265.459 66.5555 269.809 67.2439C276.451 68.2936 284.031 69.2268 283.687 72.482C283.447 74.7441 281.573 77.8006 278.448 81.823C276.231 84.681 273.233 87.5303 273.209 87.5492Z" fill="#1C468A"/>
<path d="M281.087 14.8299C281.321 16.5423 281.188 18.4071 280.782 20.354C276.669 28.1933 267.231 31.0889 254.358 25.6538C227.697 14.3967 247.526 -2.89484 247.526 -2.89484C250.019 -4.42372 252.806 -5.41543 255.707 -5.80587C267.934 -7.47201 279.294 1.77137 281.087 14.8299Z" fill="#F99746"/>
<path d="M101.111 20.7617L96.0912 52.469C94.0993 52.3263 92.1324 51.9415 90.2345 51.3233C79.5473 47.9279 73.4229 38.5156 73.4229 38.5156L101.111 20.7617Z" fill="#F99746"/>
<path d="M90.2404 51.3233C79.5532 47.9279 73.4287 38.5156 73.4287 38.5156L101.112 20.7617C101.112 20.7617 87.5407 35.3421 90.2404 51.3233Z" fill="#ED7D2B"/>
</g>
</svg>
