<svg width="24" height="24" viewBox="0 0 24 24" fill="none" xmlns="http://www.w3.org/2000/svg">
<path d="M14.2635 2.03077C14.5725 1.13227 15.3697 1.21402 15.6982 1.81177C16.2656 2.84452 17.0329 3.87614 17.703 4.70639C18.3926 5.55989 19.0894 6.42689 19.2037 6.94402C19.5675 8.59139 19.7362 11.5715 19.8487 13.4011C19.1336 12.4636 17.8639 11.5839 17.0044 11.0244C16.887 10.2999 16.662 9.03689 16.2795 7.34939C16.0249 6.22027 14.667 5.56252 14.3059 3.98677C14.1394 3.25627 14.0786 2.56852 14.2635 2.03077Z" fill="#00B4C4"/>
<path d="M11.7442 5.60902C11.5485 5.21302 11.3287 3.71789 11.8837 3.30427C12.4001 2.91914 12.8137 3.67102 13.1809 4.26539C13.353 5.35889 14.0122 6.33164 14.4761 6.88664L14.4775 6.88831C14.8384 7.31998 15.1497 7.69233 15.24 8.12452C15.3521 8.65927 15.5051 9.53639 15.6135 10.175C15.2823 9.98567 14.9479 9.80202 14.6104 9.62414C14.3098 8.90857 13.9871 8.20249 13.6429 7.50689C13.3046 6.81727 12.2205 6.57052 11.7442 5.60902Z" fill="#00B4C4"/>
<path d="M15.819 21.5851C14.8519 22.0471 13.8529 22.088 12.2786 22.088C8.69773 22.088 5.14198 20.3056 4.02748 17.7988C3.83811 17.3735 4.02036 16.7698 4.02036 15.9669C4.02036 14.0454 4.06723 12.9088 5.04036 12.9088C5.50761 12.9088 6.98286 14.0338 6.98286 16.889L10.5304 18.4906C11.5654 17.4294 14.508 15.7588 14.508 15.7588C14.0452 15.1704 14.2954 13.4923 14.2954 13.4923C13.3252 13.3674 11.262 12.3898 10.551 11.0221C9.64311 11.8048 5.42623 13.2616 5.15398 11.4208C5.07336 10.8759 5.56273 10.6839 5.75548 10.6355C7.76361 10.1285 8.73411 9.54502 9.42523 9.12427C9.92886 8.81714 10.4047 8.56177 10.797 8.56177C11.1259 8.56177 11.6351 8.72639 12.2272 9.00727C13.9099 9.80302 16.7119 11.0555 19.2037 13.2373C19.4359 13.4409 19.731 13.8875 19.8251 14.1748C20.6745 16.7716 17.1619 20.9424 15.819 21.5851Z" fill="#00B4C4"/>
</svg>
