<svg width="18" height="18" viewBox="0 0 18 18" fill="none" xmlns="http://www.w3.org/2000/svg">
<path d="M2.8125 3.09766C4.52344 1.38672 6.58594 0.53125 9 0.53125C11.4141 0.53125 13.4648 1.38672 15.1523 3.09766C16.8633 4.78516 17.7188 6.83594 17.7188 9.25C17.7188 11.6641 16.8633 13.7266 15.1523 15.4375C13.4648 17.125 11.4141 17.9688 9 17.9688C6.58594 17.9688 4.52344 17.125 2.8125 15.4375C1.125 13.7266 0.28125 11.6641 0.28125 9.25C0.28125 6.83594 1.125 4.78516 2.8125 3.09766ZM10.1953 6.22656C10.0547 6.29688 9.98438 6.41406 9.98438 6.57812C9.98438 6.74219 10.0547 6.85938 10.1953 6.92969L13.0078 8.61719C13.1953 8.73438 13.3711 8.71094 13.5352 8.54688C13.6992 8.35938 13.6992 8.17188 13.5352 7.98438L12.375 6.57812L13.5352 5.17188C13.6055 5.07812 13.6406 4.98438 13.6406 4.89062C13.6406 4.77344 13.6055 4.67969 13.5352 4.60938C13.4648 4.53906 13.3828 4.49219 13.2891 4.46875C13.1953 4.44531 13.1016 4.46875 13.0078 4.53906L10.1953 6.22656ZM4.46484 5.17188L5.625 6.57812L4.46484 7.98438C4.30078 8.17188 4.30078 8.35938 4.46484 8.54688C4.62891 8.71094 4.80469 8.73438 4.99219 8.61719L7.80469 6.92969C7.94531 6.85938 8.01562 6.74219 8.01562 6.57812C8.01562 6.41406 7.94531 6.29688 7.80469 6.22656L4.99219 4.53906C4.80469 4.42188 4.62891 4.45703 4.46484 4.64453C4.30078 4.80859 4.30078 4.98438 4.46484 5.17188ZM14.3086 11.0078C14.332 10.8438 14.2852 10.7031 14.168 10.5859C14.0508 10.4453 13.9102 10.375 13.7461 10.375H4.25391C4.08984 10.375 3.94922 10.4453 3.83203 10.5859C3.71484 10.7031 3.66797 10.8438 3.69141 11.0078C3.85547 12.2734 4.40625 13.3281 5.34375 14.1719C6.30469 15.0156 7.42969 15.4375 8.71875 15.4375H9.28125C10.5703 15.4375 11.6836 15.0156 12.6211 14.1719C13.582 13.3281 14.1445 12.2734 14.3086 11.0078Z" fill="#B8BBBF"/>
</svg>
