<svg width="24" height="24" viewBox="0 0 24 24" fill="none" xmlns="http://www.w3.org/2000/svg">
<path d="M18.5742 16.5391C18.8086 16.7969 18.8555 17.0898 18.7148 17.418C18.5742 17.7227 18.3281 17.875 17.9766 17.875H13.1602V18.7188L14.2148 20.4414C14.3086 20.6289 14.2969 20.8047 14.1797 20.9688C14.0859 21.1562 13.9336 21.25 13.7227 21.25H10.3477C10.1367 21.25 9.97266 21.1562 9.85547 20.9688C9.76172 20.8047 9.76172 20.6289 9.85547 20.4414L10.9102 18.7188V17.875H6.09375C5.74219 17.875 5.49609 17.7227 5.35547 17.418C5.21484 17.0898 5.26172 16.7969 5.49609 16.5391L8.30859 13.375H7.21875C6.86719 13.375 6.62109 13.2227 6.48047 12.918C6.33984 12.6133 6.375 12.332 6.58594 12.0742L9.36328 8.875H8.34375C7.99219 8.875 7.74609 8.71094 7.60547 8.38281C7.46484 8.07812 7.51172 7.79687 7.74609 7.53906L11.6133 3.42578C11.6836 3.35547 11.7539 3.30859 11.8242 3.28516C11.8945 3.26172 11.9648 3.25 12.0352 3.25C12.1055 3.25 12.1758 3.26172 12.2461 3.28516C12.3164 3.30859 12.3867 3.35547 12.457 3.42578L16.3242 7.53906C16.5586 7.79687 16.6055 8.07812 16.4648 8.38281C16.3242 8.71094 16.0781 8.875 15.7266 8.875H14.707L17.4844 12.0742C17.6953 12.332 17.7305 12.6133 17.5898 12.918C17.4492 13.2227 17.2031 13.375 16.8516 13.375H15.7617L18.5742 16.5391Z" fill="#219653"/>
</svg>
