<svg width="24" height="24" viewBox="0 0 24 24" fill="none" xmlns="http://www.w3.org/2000/svg">
<path d="M11.43 9.66996C11.47 9.77996 11.5 9.87996 11.5 9.99996V15.22C11.5 15.72 11.31 16.2 10.97 16.57L8.88568 18.8485C8.50112 19.2689 7.84358 19.2835 7.44071 18.8807L5.48711 16.9271C5.09658 16.5365 5.09658 15.9034 5.48711 15.5128L6 15L8.8 2.85996C8.86104 2.59286 9.01837 2.35762 9.24192 2.19921C9.46547 2.0408 9.73955 1.97033 10.0118 2.00127C10.284 2.0322 10.5353 2.16238 10.7176 2.3669C10.8999 2.57143 11.0004 2.83597 11 3.10996V7.56383C11 7.8193 10.7554 8.00441 10.5 7.99996V7.99996C9.4 7.99996 8.5 8.89996 8.5 9.99996V13C8.5 13.28 8.72 13.5 9 13.5C9.28 13.5 9.5 13.28 9.5 13V9.99996C9.5 9.44996 9.95 8.99996 10.5 8.99996C10.69 8.99996 10.85 9.06996 11 9.15996C11.12 9.22996 11.21 9.31996 11.3 9.41996C11.33 9.45996 11.36 9.49996 11.38 9.54996C11.4 9.58996 11.42 9.62996 11.43 9.66996ZM2.8153 18.1847C2.38499 18.615 2.43557 19.3266 2.92241 19.6918L5.33005 21.4975C5.7105 21.7828 6.24519 21.7338 6.56742 21.384V21.384C6.90413 21.0185 6.89254 20.4525 6.54114 20.1011L4.42711 17.9871C4.03658 17.5965 3.40342 17.5965 3.01289 17.9871L2.8153 18.1847ZM18 15L15.2 2.85996C15.139 2.59286 14.9816 2.35762 14.7581 2.19921C14.5345 2.0408 14.2604 1.97033 13.9882 2.00127C13.716 2.0322 13.4647 2.16238 13.2824 2.3669C13.1001 2.57143 12.9996 2.83597 13 3.10996V7.56381C13 7.82091 13.2429 7.99996 13.5 7.99996V7.99996C14.6 7.99996 15.5 8.89996 15.5 9.99996V13C15.5 13.28 15.28 13.5 15 13.5C14.72 13.5 14.5 13.28 14.5 13V9.99996C14.5 9.44996 14.05 8.99996 13.5 8.99996C13.31 8.99996 13.15 9.06996 13 9.15996C12.88 9.22996 12.79 9.31996 12.71 9.41996C12.68 9.45996 12.64 9.49996 12.62 9.54996C12.6 9.58996 12.58 9.62996 12.57 9.66996C12.53 9.77996 12.5 9.87996 12.5 9.99996V15.22C12.5 15.72 12.69 16.2 13.03 16.57L15.1143 18.8485C15.4989 19.2689 16.1564 19.2835 16.5593 18.8807L18.5129 16.9271C18.9034 16.5365 18.9034 15.9034 18.5129 15.5128L18 15ZM20.9871 17.9871C20.5966 17.5965 19.9634 17.5965 19.5729 17.9871L17.4589 20.1011C17.1075 20.4525 17.0959 21.0185 17.4326 21.384V21.384C17.7548 21.7338 18.2895 21.7828 18.67 21.4975L21.0776 19.6918C21.5644 19.3266 21.615 18.615 21.1847 18.1847L20.9871 17.9871Z" fill="#219653"/>
</svg>
