<svg width="24" height="24" viewBox="0 0 24 24" fill="none" xmlns="http://www.w3.org/2000/svg">
<path d="M16.043 5.5C16.3477 5.5 16.6055 5.60547 16.8164 5.81641L18.75 7.75V14.5703C18.6562 14.4531 18.5625 14.3594 18.4688 14.2891L13.3359 10.1406L14.25 9.29688C14.5312 9.03906 14.5547 8.76953 14.3203 8.48828C14.2031 8.37109 14.0625 8.3125 13.8984 8.3125C13.7578 8.3125 13.6289 8.35938 13.5117 8.45312L10.6992 11.0195V11.0547C10.3945 11.2891 10.043 11.3945 9.64453 11.3711C9.24609 11.3477 8.92969 11.207 8.69531 10.9492C8.46094 10.668 8.34375 10.3398 8.34375 9.96484C8.34375 9.56641 8.49609 9.23828 8.80078 8.98047V8.94531L12.2461 5.78125C12.457 5.59375 12.7148 5.5 13.0195 5.5H16.043ZM19.875 7.75H23.25V16.75H21C20.6953 16.75 20.4258 16.6445 20.1914 16.4336C19.9805 16.1992 19.875 15.9297 19.875 15.625V7.75ZM21.1406 15.4844C21.2578 15.5781 21.3984 15.625 21.5625 15.625C21.7266 15.625 21.8555 15.5781 21.9492 15.4844C22.0664 15.3672 22.125 15.2266 22.125 15.0625C22.125 14.8984 22.0664 14.7695 21.9492 14.6758C21.8555 14.5586 21.7266 14.5 21.5625 14.5C21.3984 14.5 21.2578 14.5586 21.1406 14.6758C21.0469 14.7695 21 14.8984 21 15.0625C21 15.2266 21.0469 15.3672 21.1406 15.4844ZM0.75 16.75V7.75H4.125V15.625C4.125 15.9297 4.00781 16.1992 3.77344 16.4336C3.5625 16.6445 3.30469 16.75 3 16.75H0.75ZM2.82422 14.6758C2.73047 14.5586 2.60156 14.5 2.4375 14.5C2.27344 14.5 2.13281 14.5586 2.01562 14.6758C1.92188 14.7695 1.875 14.8984 1.875 15.0625C1.875 15.2266 1.92188 15.3672 2.01562 15.4844C2.13281 15.5781 2.27344 15.625 2.4375 15.625C2.60156 15.625 2.73047 15.5781 2.82422 15.4844C2.94141 15.3672 3 15.2266 3 15.0625C3 14.8984 2.94141 14.7695 2.82422 14.6758ZM17.7656 15.168C18 15.3555 18.1289 15.6016 18.1523 15.9062C18.1992 16.2109 18.1172 16.4922 17.9062 16.75L17.5898 17.1719C17.4023 17.4062 17.1445 17.5469 16.8164 17.5938C16.5117 17.6172 16.2422 17.5234 16.0078 17.3125L15.832 17.1719L14.707 18.5078C14.4961 18.7891 14.2031 18.9531 13.8281 19C13.4766 19.0469 13.1602 18.9531 12.8789 18.7188L12.2461 18.1562C11.8477 18.6484 11.332 18.9297 10.6992 19C10.0898 19.0703 9.55078 18.9062 9.08203 18.5078L5.88281 15.625H5.25V7.75L7.18359 5.81641C7.39453 5.60547 7.65234 5.5 7.95703 5.5H10.9102L8.02734 8.13672C7.51172 8.60547 7.24219 9.19141 7.21875 9.89453C7.19531 10.5977 7.41797 11.207 7.88672 11.7227C8.35547 12.2148 8.92969 12.4844 9.60938 12.5312C10.3125 12.5547 10.9336 12.332 11.4727 11.8633L12.5273 10.9141L17.7656 15.168Z" fill="#00B4C4"/>
</svg>
