<svg width="18" height="18" viewBox="0 0 18 18" fill="none" xmlns="http://www.w3.org/2000/svg">
<path d="M2.8125 3.09766C4.52344 1.38672 6.58594 0.53125 9 0.53125C11.4141 0.53125 13.4648 1.38672 15.1523 3.09766C16.8633 4.78516 17.7188 6.83594 17.7188 9.25C17.7188 11.6641 16.8633 13.7266 15.1523 15.4375C13.4648 17.125 11.4141 17.9688 9 17.9688C6.58594 17.9688 4.52344 17.125 2.8125 15.4375C1.125 13.7266 0.28125 11.6641 0.28125 9.25C0.28125 6.83594 1.125 4.78516 2.8125 3.09766ZM4.21875 8.08984C4.19531 8.25391 4.25391 8.35938 4.39453 8.40625C4.55859 8.42969 4.67578 8.38281 4.74609 8.26562L5.09766 7.66797C5.37891 7.15234 5.74219 6.89453 6.1875 6.89453C6.63281 6.89453 7.00781 7.15234 7.3125 7.66797L7.62891 8.26562C7.69922 8.38281 7.80469 8.42969 7.94531 8.40625C8.10938 8.35938 8.17969 8.25391 8.15625 8.08984C8.13281 7.80859 8.07422 7.53906 7.98047 7.28125C7.88672 7.02344 7.76953 6.78906 7.62891 6.57812C7.51172 6.36719 7.37109 6.19141 7.20703 6.05078C7.04297 5.91016 6.86719 5.80469 6.67969 5.73438C6.51562 5.64062 6.35156 5.59375 6.1875 5.59375C5.74219 5.59375 5.30859 5.83984 4.88672 6.33203C4.48828 6.80078 4.26562 7.38672 4.21875 8.08984ZM13.043 12.4141C13.2773 12.1328 13.2422 11.875 12.9375 11.6406C12.6562 11.4062 12.3984 11.4297 12.1641 11.7109C11.3438 12.6953 10.2891 13.1875 9 13.1875C7.71094 13.1875 6.65625 12.6953 5.83594 11.7109C5.60156 11.4297 5.33203 11.4062 5.02734 11.6406C4.74609 11.875 4.72266 12.1328 4.95703 12.4141C6.01172 13.6797 7.35938 14.3125 9 14.3125C10.6406 14.3125 11.9883 13.6797 13.043 12.4141ZM13.2539 8.26562C13.3242 8.38281 13.4297 8.42969 13.5703 8.40625C13.7344 8.35938 13.8047 8.25391 13.7812 8.08984C13.7578 7.62109 13.6406 7.19922 13.4297 6.82422C13.2188 6.42578 12.9609 6.12109 12.6562 5.91016C12.375 5.69922 12.0938 5.59375 11.8125 5.59375C11.3672 5.59375 10.9336 5.83984 10.5117 6.33203C10.1133 6.80078 9.89062 7.38672 9.84375 8.08984C9.84375 8.25391 9.91406 8.35938 10.0547 8.40625C10.1953 8.42969 10.3008 8.38281 10.3711 8.26562L10.6875 7.66797C10.9922 7.15234 11.3672 6.89453 11.8125 6.89453C12.2578 6.89453 12.6328 7.15234 12.9375 7.66797L13.2539 8.26562Z" fill="#B8BBBF"/>
</svg>
