<svg width="24" height="24" viewBox="0 0 24 24" fill="none" xmlns="http://www.w3.org/2000/svg">
<path d="M19.6992 5.85156C20.543 6.71875 20.9883 7.77344 21.0352 9.01562C21.082 10.2344 20.7188 11.3125 19.9453 12.25L12.4922 19.9492C12.3516 20.0664 12.1875 20.125 12 20.125C11.8359 20.125 11.6953 20.0664 11.5781 19.9492L4.125 12.25C3.35156 11.3125 2.98828 10.2344 3.03516 9.01562C3.08203 7.77344 3.52734 6.71875 4.37109 5.85156L4.47656 5.74609C5.27344 4.92578 6.24609 4.48047 7.39453 4.41016C8.54297 4.31641 9.5625 4.59766 10.4531 5.25391L11.4727 8.3125L8.09766 10.5625L13.1602 15.625L11.4727 11.125L14.8477 8.875L13.6523 5.21875C14.543 4.58594 15.5508 4.31641 16.6758 4.41016C17.8242 4.48047 18.7969 4.92578 19.5938 5.74609L19.6992 5.85156Z" fill="#DA1414"/>
</svg>
