<svg width="24" height="24" viewBox="0 0 24 24" fill="none" xmlns="http://www.w3.org/2000/svg">
<path d="M10.5 15.4997C10.5 16.6606 10.33 17 9.75 17C9.17 17 9 16.6606 9 15.4997C9 14.3394 9.17 14 9.75 14C10.33 14 10.5 14.3388 10.5 15.4997ZM15 15.4997C15 16.6606 14.83 17 14.25 17C13.67 17 13.5 16.6606 13.5 15.4997C13.5 14.3394 13.67 14 14.25 14C14.83 14 15 14.3388 15 15.4997Z" fill="#B43600"/>
<path fill-rule="evenodd" clip-rule="evenodd" d="M20.9961 9.66322C21.2165 9.45595 21.407 9.21974 21.5622 8.96122C22.4989 7.39597 21.7122 3.31669 21.2333 3.03808C20.8472 2.81267 18.1617 3.61394 16.6522 4.75579C15.2644 3.93478 13.6839 3.44996 12 3.44996C10.3217 3.44996 8.74667 3.93203 7.36167 4.74811C5.85 3.61065 3.17722 2.81322 2.79111 3.03808C2.31278 3.31669 1.52667 7.39652 2.46222 8.96122C2.61667 9.21953 2.80389 9.44604 3.01167 9.64622C2.37 11.0458 2 12.576 2 14.133C2 19.6114 6.45056 21 12 21C17.5494 21 22 19.6114 22 14.133C22 12.582 21.6333 11.0584 20.9961 9.66322ZM12 20C15.4515 20 17 17.3931 17 15C17 12.6069 15.4515 12 12 12C8.548 12 7 12.6069 7 15C7 17.3931 8.548 20 12 20ZM4.23606 5.01495C4.36778 4.93008 5.10778 5.22371 5.82461 5.68131C5.11756 6.31949 4.53737 7.1085 4.11957 8C3.87765 6.82007 4.04743 5.13667 4.23606 5.01495ZM19.7639 5.01459C19.9525 5.13631 20.1226 6.81971 19.88 7.99964C19.4624 7.10803 18.8822 6.31898 18.175 5.68095C18.8918 5.22335 19.6322 4.92972 19.7639 5.01459ZM6 12C6.55228 12 7 11.3284 7 10.5C7 9.67157 6.55228 9 6 9C5.44772 9 5 9.67157 5 10.5C5 11.3284 5.44772 12 6 12ZM19 10.5C19 11.3284 18.5523 12 18 12C17.4477 12 17 11.3284 17 10.5C17 9.67157 17.4477 9 18 9C18.5523 9 19 9.67157 19 10.5Z" fill="#B43600"/>
</svg>
