<svg width="24" height="24" viewBox="0 0 24 24" fill="none" xmlns="http://www.w3.org/2000/svg">
<path d="M6.65625 11.125C6.89062 11.125 7.08984 11.207 7.25391 11.3711C7.41797 11.5352 7.5 11.7344 7.5 11.9688V20.4062C7.5 20.6406 7.41797 20.8398 7.25391 21.0039C7.08984 21.168 6.89062 21.25 6.65625 21.25H3.84375C3.60938 21.25 3.41016 21.168 3.24609 21.0039C3.08203 20.8398 3 20.6406 3 20.4062V11.9688C3 11.7344 3.08203 11.5352 3.24609 11.3711C3.41016 11.207 3.60938 11.125 3.84375 11.125H6.65625ZM4.65234 19.5977C4.81641 19.7617 5.01562 19.8438 5.25 19.8438C5.48438 19.8438 5.68359 19.7617 5.84766 19.5977C6.01172 19.4336 6.09375 19.2344 6.09375 19C6.09375 18.7656 6.01172 18.5664 5.84766 18.4023C5.68359 18.2383 5.48438 18.1562 5.25 18.1562C5.01562 18.1562 4.81641 18.2383 4.65234 18.4023C4.48828 18.5664 4.40625 18.7656 4.40625 19C4.40625 19.2344 4.48828 19.4336 4.65234 19.5977ZM16.5 6.09766C16.5 6.68359 16.3125 7.35156 15.9375 8.10156C15.5625 8.82812 15.3633 9.27344 15.3398 9.4375H18.8906C19.4766 9.4375 19.9688 9.64844 20.3672 10.0703C20.7891 10.4688 21 10.9375 21 11.4766C21 12.1797 20.7773 12.7539 20.332 13.1992H20.2969C20.4844 13.5977 20.5547 14.0664 20.5078 14.6055C20.4609 15.1445 20.2852 15.6133 19.9805 16.0117C20.1211 16.4805 20.1328 16.9609 20.0156 17.4531C19.8984 17.9219 19.6992 18.3203 19.418 18.6484C19.5586 19.2578 19.4883 19.7734 19.207 20.1953C18.9727 20.5234 18.6094 20.7695 18.1172 20.9336C17.625 21.0977 17.1797 21.1914 16.7812 21.2148C16.4062 21.2383 15.8789 21.25 15.1992 21.25H15.0938C13.9688 21.25 12.5625 20.875 10.875 20.125C10.0547 19.75 9.44531 19.5625 9.04688 19.5625C8.92969 19.5625 8.82422 19.5156 8.73047 19.4219C8.66016 19.3516 8.625 19.2578 8.625 19.1406V11.6172C8.625 11.5 8.67188 11.4062 8.76562 11.3359C9.23438 10.8438 9.77344 10.1523 10.3828 9.26172C11.0156 8.34766 11.5195 7.71484 11.8945 7.36328C12.2227 7.01172 12.5156 6.32031 12.7734 5.28906C13.1016 3.92969 13.5 3.25 13.9688 3.25C14.2266 3.25 14.4727 3.28516 14.707 3.35547C14.9648 3.40234 15.2344 3.51953 15.5156 3.70703C15.8203 3.87109 16.0547 4.16406 16.2188 4.58594C16.4062 5.00781 16.5 5.51172 16.5 6.09766Z" fill="#00B4C4"/>
</svg>
