<svg width="24" height="24" viewBox="0 0 24 24" fill="none" xmlns="http://www.w3.org/2000/svg">
<path d="M17.4492 7.1875C17.332 7.1875 17.2383 7.16406 17.168 7.11719C17.0977 7.04688 17.0742 6.95312 17.0977 6.83594C17.3555 5.14844 17.6719 4.11719 18.0469 3.74219C18.375 3.41406 18.7852 3.25 19.2773 3.25C19.7695 3.25 20.1797 3.42578 20.5078 3.77734C20.8594 4.12891 21.0352 4.55078 21.0352 5.04297C21.0352 5.51172 20.8711 5.91016 20.543 6.23828C20.1445 6.63672 19.1133 6.95312 17.4492 7.1875ZM6.62109 17.3125C6.73828 17.3125 6.83203 17.3477 6.90234 17.418C6.97266 17.4648 6.99609 17.5469 6.97266 17.6641C6.71484 19.3516 6.39844 20.3828 6.02344 20.7578C5.69531 21.0859 5.28516 21.25 4.79297 21.25C4.32422 21.25 3.91406 21.0742 3.5625 20.7227C3.21094 20.3711 3.03516 19.9492 3.03516 19.457C3.03516 18.9883 3.19922 18.5898 3.52734 18.2617C3.92578 17.8633 4.95703 17.5469 6.62109 17.3125ZM17.5898 8.3125C18.3633 8.19531 19.0312 8.05469 19.5938 7.89062C20.5547 9.55469 20.918 11.3711 20.6836 13.3398C20.4492 15.3086 19.6172 17.0078 18.1875 18.4375C16.7812 19.8438 15.0938 20.6641 13.125 20.8984C11.1562 21.1328 9.33984 20.7695 7.67578 19.8086C7.83984 19.2227 7.98047 18.5547 8.09766 17.8047C8.14453 17.4062 8.01562 17.0312 7.71094 16.6797C7.42969 16.3047 7.01953 16.1406 6.48047 16.1875C5.70703 16.3047 5.03906 16.4453 4.47656 16.6094C3.51562 14.9453 3.15234 13.1289 3.38672 11.1602C3.62109 9.19141 4.44141 7.50391 5.84766 6.09766C7.27734 4.66797 8.97656 3.83594 10.9453 3.60156C12.9141 3.36719 14.7305 3.73047 16.3945 4.69141C16.2305 5.27734 16.0898 5.94531 15.9727 6.69531C15.9258 7.09375 16.043 7.48047 16.3242 7.85547C16.6289 8.20703 17.0508 8.35938 17.5898 8.3125ZM12.0352 6.97656L11.2266 10.1758C11.2031 10.3164 11.2383 10.4453 11.332 10.5625C11.4492 10.6797 11.5898 10.7148 11.7539 10.668L14.918 9.85938C15.1523 9.8125 15.2578 9.67188 15.2344 9.4375C15.2109 9.20312 15.082 9.07422 14.8477 9.05078L13.0195 8.875L12.8438 7.04688C12.8203 6.8125 12.6914 6.68359 12.457 6.66016C12.2227 6.63672 12.082 6.74219 12.0352 6.97656ZM8.83594 15.0625C8.85938 15.2969 8.98828 15.4258 9.22266 15.4492C9.45703 15.4727 9.59766 15.3672 9.64453 15.1328L10.4531 11.9688C10.4766 11.8516 10.4648 11.7578 10.418 11.6875C10.3711 11.5938 10.3008 11.5234 10.207 11.4766C10.1367 11.4297 10.043 11.418 9.92578 11.4414L6.76172 12.25C6.52734 12.2969 6.42188 12.4375 6.44531 12.6719C6.46875 12.9062 6.59766 13.0352 6.83203 13.0586L8.66016 13.2344L8.83594 15.0625ZM16.3945 16.6094C17.1914 15.8125 17.7305 14.8516 18.0117 13.7266C18.3164 12.5781 18.1992 11.582 17.6602 10.7383C17.543 10.5742 17.3789 10.5039 17.168 10.5273C16.957 10.5273 16.8047 10.6211 16.7109 10.8086C16.1719 11.8398 15.2695 12.9883 14.0039 14.2539C12.7617 15.4961 11.625 16.3867 10.5938 16.9258C10.4062 17.0195 10.3008 17.1719 10.2773 17.3828C10.2539 17.5938 10.3359 17.7578 10.5234 17.875C11.0156 18.2266 11.6133 18.4023 12.3164 18.4023C13.0195 18.4023 13.7461 18.2383 14.4961 17.9102C15.2461 17.582 15.8789 17.1484 16.3945 16.6094Z" fill="#FFA600"/>
</svg>
