<svg width="24" height="24" viewBox="0 0 24 24" fill="none" xmlns="http://www.w3.org/2000/svg">
<path d="M19.2773 5.46484C20.3789 6.40234 20.9648 7.59766 21.0352 9.05078C21.1055 10.5039 20.6367 11.7344 19.6289 12.7422L12.8438 19.7734C12.6094 20.0078 12.3398 20.125 12.0352 20.125C11.7305 20.125 11.4609 20.0078 11.2266 19.7734L4.44141 12.7422C3.43359 11.7344 2.96484 10.5039 3.03516 9.05078C3.10547 7.59766 3.69141 6.40234 4.79297 5.46484C5.75391 4.64453 6.85547 4.29297 8.09766 4.41016C9.36328 4.50391 10.4414 5.00781 11.332 5.92188L12.0352 6.625L12.7383 5.92188C13.6289 5.00781 14.6953 4.50391 15.9375 4.41016C17.2031 4.29297 18.3164 4.64453 19.2773 5.46484Z" fill="#FFA600"/>
</svg>
