<svg width="24" height="24" viewBox="0 0 24 24" fill="none" xmlns="http://www.w3.org/2000/svg">
<ellipse cx="12" cy="12" rx="12" ry="12" fill="#FEFEFE"/>
<g clip-path="url(#clip0)">
<path d="M11.5416 14.2199C11.6739 13.6654 11.9354 13.1501 12.3047 12.7158C12.674 12.2816 13.1406 11.9407 13.6666 11.721V8.66656C13.6666 8.07719 13.4325 7.51196 13.0157 7.09521C12.599 6.67846 12.0338 6.44434 11.4444 6.44434C10.855 6.44434 10.2898 6.67846 9.87304 7.09521C9.45629 7.51196 9.22217 8.07719 9.22217 8.66656V11.9999C9.22218 12.2999 9.28294 12.5968 9.40078 12.8727C9.51862 13.1486 9.6911 13.3977 9.90783 13.6052C10.1246 13.8126 10.3811 13.974 10.6618 14.0797C10.9426 14.1853 11.2419 14.233 11.5416 14.2199Z" fill="#DA1414"/>
<path d="M11.4446 15.0553C11.4446 15.6642 11.5951 16.2381 11.8612 16.7414V17.1387C11.8612 17.2442 11.8211 17.3458 11.749 17.423C11.6769 17.5001 11.5783 17.547 11.473 17.5542C11.3676 17.5614 11.2635 17.5284 11.1816 17.4617C11.0997 17.3951 11.0462 17.2999 11.0318 17.1953L11.0279 17.1387V15.8787C10.1065 15.8102 9.24282 15.4041 8.60245 14.7381C7.96208 14.0721 7.59012 13.1931 7.55789 12.2698L7.55566 12.1387V11.8609C7.5557 11.7553 7.5958 11.6537 7.66787 11.5765C7.73994 11.4994 7.83861 11.4525 7.94393 11.4453C8.04925 11.4381 8.15338 11.4712 8.23527 11.5378C8.31717 11.6044 8.37072 11.6996 8.38511 11.8042L8.389 11.8609V12.1387C8.38893 12.8915 8.67995 13.6152 9.20118 14.1583C9.72242 14.7015 10.4335 15.0221 11.1857 15.0531L11.3057 15.0553H11.4446Z" fill="#DA1414"/>
<path d="M18.1111 15.0556C18.1111 15.8659 17.7892 16.6431 17.2162 17.2162C16.6431 17.7892 15.8659 18.1111 15.0556 18.1111C14.2452 18.1111 13.468 17.7892 12.895 17.2162C12.3219 16.6431 12 15.8659 12 15.0556C12 14.2452 12.3219 13.468 12.895 12.895C13.468 12.3219 14.2452 12 15.0556 12C15.8659 12 16.6431 12.3219 17.2162 12.895C17.7892 13.468 18.1111 14.2452 18.1111 15.0556ZM12.8333 15.0556C12.8333 15.5189 12.975 15.9489 13.2172 16.3044L16.3044 13.2172C15.9704 12.9902 15.5807 12.8586 15.1774 12.8364C14.7741 12.8143 14.3724 12.9025 14.0155 13.0915C13.6586 13.2805 13.3599 13.5633 13.1516 13.9093C12.9433 14.2554 12.8333 14.6517 12.8333 15.0556ZM15.0556 17.2778C15.4595 17.2778 15.8557 17.1678 16.2018 16.9595C16.5478 16.7512 16.8306 16.4525 17.0196 16.0956C17.2087 15.7387 17.2968 15.337 17.2747 14.9337C17.2525 14.5304 17.1209 14.1407 16.8939 13.8067L13.8067 16.8939C14.1622 17.1361 14.5922 17.2778 15.0556 17.2778Z" fill="#DA1414"/>
</g>
<defs>
<clipPath id="clip0">
<rect width="13.3333" height="13.3333" fill="white" transform="translate(5.3335 5.33325)"/>
</clipPath>
</defs>
</svg>
