<svg width="153" height="13" viewBox="0 0 153 13" fill="none" xmlns="http://www.w3.org/2000/svg">
<path d="M98.4821 4.34169C98.4496 4.29992 98.3359 4.2216 98.141 4.10674C97.9461 3.99187 97.7024 3.87179 97.41 3.74648C97.1176 3.62117 96.7982 3.51153 96.4516 3.41755C96.1051 3.32357 95.7585 3.27658 95.412 3.27658C94.459 3.27658 93.9825 3.58463 93.9825 4.20072C93.9825 4.38867 94.0313 4.54531 94.1287 4.67061C94.237 4.79592 94.3886 4.91078 94.5836 5.01521C94.7893 5.10919 95.0438 5.19794 95.347 5.28148C95.6502 5.36502 96.0022 5.459 96.4029 5.56342C96.9552 5.70961 97.4533 5.87146 97.8973 6.04898C98.3413 6.21606 98.7149 6.43012 99.0182 6.69117C99.3322 6.94179 99.5704 7.24983 99.7329 7.61531C99.9062 7.98078 99.9928 8.41936 99.9928 8.93102C99.9928 9.55755 99.8683 10.0901 99.6192 10.5287C99.3809 10.9568 99.0615 11.3066 98.6608 11.5781C98.2601 11.8392 97.7999 12.0323 97.2801 12.1577C96.7603 12.2725 96.2242 12.33 95.6719 12.33C95.2496 12.33 94.8164 12.2986 94.3724 12.236C93.9284 12.1733 93.4952 12.0846 93.0729 11.9697C92.6505 11.8444 92.239 11.6982 91.8383 11.5311C91.4485 11.3641 91.0857 11.1709 90.75 10.9516L91.9196 8.71174C91.9629 8.76395 92.1037 8.86315 92.3419 9.00934C92.5801 9.15553 92.8725 9.30172 93.2191 9.44791C93.5764 9.5941 93.9717 9.72463 94.4049 9.83949C94.8381 9.95436 95.2766 10.0118 95.7206 10.0118C96.6628 10.0118 97.1339 9.73507 97.1339 9.18163C97.1339 8.97279 97.0635 8.8005 96.9227 8.66475C96.7819 8.529 96.587 8.40891 96.3379 8.30449C96.0888 8.18963 95.791 8.08521 95.4445 7.99123C95.1088 7.89725 94.7406 7.79283 94.3399 7.67796C93.8093 7.52133 93.349 7.35425 92.9592 7.17674C92.5693 6.98878 92.2444 6.77471 91.9845 6.53454C91.7355 6.29437 91.546 6.01765 91.416 5.70439C91.2969 5.39112 91.2373 5.02565 91.2373 4.60796C91.2373 4.0232 91.351 3.50631 91.5784 3.0573C91.8059 2.60828 92.1145 2.23237 92.5043 1.92954C92.8942 1.61628 93.3436 1.38133 93.8526 1.22469C94.3724 1.06806 94.9193 0.989746 95.4932 0.989746C95.8939 0.989746 96.2892 1.02629 96.679 1.09939C97.0689 1.17248 97.4425 1.26646 97.7999 1.38133C98.1572 1.49619 98.4875 1.62672 98.7907 1.77291C99.1048 1.9191 99.3918 2.06529 99.6517 2.21148L98.4821 4.34169Z" fill="#EDEDED"/>
<path d="M110.571 10.0118C111.026 10.0118 111.411 9.92303 111.725 9.74551C112.039 9.55755 112.293 9.31216 112.488 9.00934C112.683 8.70652 112.818 8.36192 112.894 7.97556C112.981 7.57876 113.024 7.17674 113.024 6.76949V1.08373H115.688V6.76949C115.688 7.54221 115.585 8.26272 115.38 8.93102C115.185 9.59932 114.876 10.1841 114.454 10.6853C114.042 11.1865 113.512 11.5833 112.862 11.8757C112.223 12.1577 111.459 12.2986 110.571 12.2986C109.651 12.2986 108.866 12.1472 108.216 11.8444C107.566 11.5416 107.036 11.1395 106.624 10.6383C106.223 10.1267 105.926 9.53667 105.731 8.86837C105.547 8.20007 105.455 7.50044 105.455 6.76949V1.08373H108.119V6.76949C108.119 7.19762 108.162 7.60487 108.249 7.99123C108.335 8.37759 108.476 8.72218 108.671 9.025C108.866 9.32783 109.115 9.568 109.418 9.74551C109.732 9.92303 110.117 10.0118 110.571 10.0118Z" fill="#EDEDED"/>
<path d="M121.813 12.2046V1.08373H124.477V12.2046H121.813Z" fill="#EDEDED"/>
<path d="M139.532 3.33924H136.024V12.2046H133.36V3.33924H129.835V1.08373H139.532V3.33924Z" fill="#EDEDED"/>
<path d="M153 9.94914V12.2046H144.894V1.08373H152.854V3.33924H147.558V5.50077H152.107V7.58398H147.558V9.94914H153Z" fill="#EDEDED"/>
<path d="M10.2955 12.142L10.2794 5.56342L6.94989 10.9829H5.77002L2.4567 5.70439V12.142H0V1.1777H2.16578L6.40036 7.99123L10.5703 1.1777H12.7199L12.7522 12.142H10.2955Z" fill="#EDEDED"/>
<path d="M23.9156 12.33C22.7411 12.33 21.6798 12.0846 20.7316 11.5938C19.7941 11.103 19.056 10.4295 18.5173 9.57322C17.9893 8.70652 17.7253 7.73539 17.7253 6.65985C17.7253 5.5843 17.9893 4.6184 18.5173 3.76214C19.056 2.89544 19.7941 2.2167 20.7316 1.72592C21.6798 1.23514 22.7411 0.989746 23.9156 0.989746C25.09 0.989746 26.146 1.23514 27.0834 1.72592C28.0209 2.2167 28.7589 2.89544 29.2977 3.76214C29.8364 4.6184 30.1058 5.5843 30.1058 6.65985C30.1058 7.73539 29.8364 8.70652 29.2977 9.57322C28.7589 10.4295 28.0209 11.103 27.0834 11.5938C26.146 12.0846 25.09 12.33 23.9156 12.33ZM23.9156 10.1684C24.5836 10.1684 25.187 10.0222 25.7258 9.72985C26.2645 9.42703 26.6847 9.00934 26.9865 8.47679C27.2989 7.94424 27.4552 7.33859 27.4552 6.65985C27.4552 5.98111 27.2989 5.37546 26.9865 4.84291C26.6847 4.31036 26.2645 3.89789 25.7258 3.60551C25.187 3.30269 24.5836 3.15128 23.9156 3.15128C23.2475 3.15128 22.6441 3.30269 22.1054 3.60551C21.5666 3.89789 21.141 4.31036 20.8285 4.84291C20.5268 5.37546 20.376 5.98111 20.376 6.65985C20.376 7.33859 20.5268 7.94424 20.8285 8.47679C21.141 9.00934 21.5666 9.42703 22.1054 9.72985C22.6441 10.0222 23.2475 10.1684 23.9156 10.1684Z" fill="#EDEDED"/>
<path d="M43.3811 6.44056C44.0276 6.63896 44.5341 6.97311 44.9004 7.44301C45.2668 7.90247 45.4499 8.47157 45.4499 9.15031C45.4499 10.111 45.062 10.8524 44.2862 11.3745C43.5212 11.8862 42.4006 12.142 40.9244 12.142H35.0736V1.1777H40.6012C41.9804 1.1777 43.0363 1.43354 43.769 1.94521C44.5125 2.45687 44.8843 3.15128 44.8843 4.02842C44.8843 4.56097 44.7496 5.03609 44.4802 5.45378C44.2216 5.87146 43.8552 6.20039 43.3811 6.44056ZM37.6758 3.08862V5.67306H40.2779C40.9244 5.67306 41.4147 5.56342 41.7487 5.34413C42.0828 5.12485 42.2498 4.80114 42.2498 4.37301C42.2498 3.94488 42.0828 3.6264 41.7487 3.41755C41.4147 3.19827 40.9244 3.08862 40.2779 3.08862H37.6758ZM40.7305 10.2311C41.4201 10.2311 41.9373 10.1214 42.2821 9.90215C42.6377 9.68286 42.8155 9.34349 42.8155 8.88403C42.8155 7.97556 42.1205 7.52133 40.7305 7.52133H37.6758V10.2311H40.7305Z" fill="#EDEDED"/>
<path d="M50.4323 1.1777H53.0506V12.142H50.4323V1.1777Z" fill="#EDEDED"/>
<path d="M58.7356 1.1777H61.3539V10.0744H67.027V12.142H58.7356V1.1777Z" fill="#EDEDED"/>
<path d="M80.25 10.1058V12.142H71.4899V1.1777H80.0399V3.21393H74.0921V5.59475H79.3449V7.56832H74.0921V10.1058H80.25Z" fill="#EDEDED"/>
</svg>
