<svg width="24" height="24" viewBox="0 0 24 24" fill="none" xmlns="http://www.w3.org/2000/svg">
<path d="M3 17.4883C4.42969 18.4961 6.67969 19 9.75 19C12.8203 19 15.0703 18.4961 16.5 17.4883V19C16.5 19.6094 15.832 20.1367 14.4961 20.582C13.1836 21.0273 11.6016 21.25 9.75 21.25C7.89844 21.25 6.30469 21.0273 4.96875 20.582C3.65625 20.1367 3 19.6094 3 19V17.4883ZM18.9961 7.08203C17.6836 7.52734 16.1016 7.75 14.25 7.75C12.3984 7.75 10.8047 7.52734 9.46875 7.08203C8.15625 6.63672 7.5 6.10937 7.5 5.5C7.5 4.89063 8.15625 4.36328 9.46875 3.91797C10.8047 3.47266 12.3984 3.25 14.25 3.25C16.1016 3.25 17.6836 3.47266 18.9961 3.91797C20.332 4.36328 21 4.89063 21 5.5C21 6.10937 20.332 6.63672 18.9961 7.08203ZM3 13.7969C3.70312 14.3828 4.66406 14.8398 5.88281 15.168C7.10156 15.4727 8.39062 15.625 9.75 15.625C10.6406 15.625 11.5078 15.5664 12.3516 15.4492C13.1953 15.3086 13.9805 15.0977 14.707 14.8164C15.4336 14.5352 16.0312 14.1953 16.5 13.7969V15.625C16.5 16.2344 15.832 16.7617 14.4961 17.207C13.1836 17.6523 11.6016 17.875 9.75 17.875C7.89844 17.875 6.30469 17.6523 4.96875 17.207C3.65625 16.7617 3 16.2344 3 15.625V13.7969ZM17.625 14.1836V11.9688C19.1016 11.7109 20.2266 11.3008 21 10.7383V12.25C21 12.4609 20.918 12.6602 20.7539 12.8477C20.5898 13.0352 20.3555 13.2227 20.0508 13.4102C19.7695 13.5742 19.418 13.7266 18.9961 13.8672C18.5977 13.9844 18.1406 14.0898 17.625 14.1836ZM4.96875 9.71875C6.28125 9.15625 7.875 8.875 9.75 8.875C11.625 8.875 13.2188 9.15625 14.5312 9.71875C15.8438 10.2578 16.5 10.9141 16.5 11.6875C16.5 12.4609 15.8438 13.1289 14.5312 13.6914C13.2188 14.2305 11.625 14.5 9.75 14.5C7.875 14.5 6.28125 14.2305 4.96875 13.6914C3.65625 13.1289 3 12.4609 3 11.6875C3 10.9141 3.65625 10.2578 4.96875 9.71875ZM17.4492 10.8438C17.168 10.0469 16.4648 9.37891 15.3398 8.83984C17.918 8.72266 19.8047 8.23047 21 7.36328V8.875C21 9.29688 20.6719 9.68359 20.0156 10.0352C19.3828 10.3867 18.5273 10.6562 17.4492 10.8438Z" fill="#FFA600"/>
</svg>
