<svg width="24" height="24" viewBox="0 0 24 24" fill="none" xmlns="http://www.w3.org/2000/svg">
<path d="M19 13C19.7 13 20.37 13.13 21 13.35V9L15 3H5C3.89 3 3 3.89 3 5V19C3 19.5304 3.21071 20.0391 3.58579 20.4142C3.96086 20.7893 4.46957 21 5 21H13.35C13.13 20.37 13 19.7 13 19C13 15.69 15.69 13 19 13ZM14 4.5L19.5 10H14V4.5ZM21.9762 16.6133C22.2733 16.9745 22.2477 17.5023 21.917 17.833L18.4885 21.2615C18.0859 21.6641 17.429 21.6498 17.0443 21.2301L15.5422 19.5915C15.239 19.2608 15.2501 18.7499 15.5674 18.4326V18.4326C15.8947 18.1053 16.4253 18.1053 16.7526 18.4326L17.75 19.43L20.632 16.548C21.0114 16.1686 21.6352 16.1989 21.9762 16.6133V16.6133Z" fill="#FB9600"/>
</svg>
