<svg width="24" height="24" viewBox="0 0 24 24" fill="none" xmlns="http://www.w3.org/2000/svg">
<path d="M9.11719 18.6836L3.24609 12.8477C3.08203 12.6836 3 12.4727 3 12.2148C3 11.957 3.08203 11.7461 3.24609 11.582L4.54688 10.3164C4.71094 10.1289 4.91016 10.0352 5.14453 10.0352C5.40234 10.0352 5.625 10.1289 5.8125 10.3164L9.75 14.2539L18.1875 5.81641C18.375 5.62891 18.5859 5.53516 18.8203 5.53516C19.0781 5.53516 19.2891 5.62891 19.4531 5.81641L20.7539 7.08203C20.918 7.24609 21 7.45703 21 7.71484C21 7.97266 20.918 8.18359 20.7539 8.34766L10.3828 18.6836C10.2188 18.8711 10.0078 18.9648 9.75 18.9648C9.49219 18.9648 9.28125 18.8711 9.11719 18.6836Z" fill="#FB9600"/>
</svg>
