<svg width="24" height="24" viewBox="0 0 24 24" fill="none" xmlns="http://www.w3.org/2000/svg">
<ellipse cx="12" cy="12" rx="12" ry="12" fill="#FEFEFE"/>
<path d="M12 6.28589C11.4317 6.28589 10.8867 6.51165 10.4848 6.91352C10.0829 7.31538 9.85718 7.86043 9.85718 8.42875V12.2383C9.85718 12.5197 9.9126 12.7983 10.0203 13.0583C10.128 13.3183 10.2858 13.5545 10.4848 13.7535C10.6838 13.9525 10.92 14.1103 11.18 14.218C11.44 14.3257 11.7186 14.3811 12 14.3811C12.2814 14.3811 12.5601 14.3257 12.8201 14.218C13.0801 14.1103 13.3163 13.9525 13.5153 13.7535C13.7142 13.5545 13.8721 13.3183 13.9798 13.0583C14.0875 12.7983 14.1429 12.5197 14.1429 12.2383V8.42875C14.1429 7.86043 13.9171 7.31538 13.5153 6.91352C13.1134 6.51165 12.5684 6.28589 12 6.28589Z" fill="#191C21"/>
<path d="M8.90472 11.8812C8.90472 11.7865 8.86709 11.6956 8.80011 11.6287C8.73313 11.5617 8.64229 11.524 8.54757 11.524C8.45285 11.524 8.36201 11.5617 8.29503 11.6287C8.22806 11.6956 8.19043 11.7865 8.19043 11.8812V12.2383C8.1904 13.1869 8.54424 14.1013 9.18274 14.8028C9.82123 15.5042 10.6984 15.9423 11.6428 16.0312V17.3574C11.6428 17.4521 11.6804 17.5429 11.7474 17.6099C11.8144 17.6769 11.9052 17.7145 12 17.7145C12.0947 17.7145 12.1855 17.6769 12.2525 17.6099C12.3195 17.5429 12.3571 17.4521 12.3571 17.3574V16.0312C13.3015 15.9423 14.1787 15.5042 14.8172 14.8028C15.4557 14.1013 15.8095 13.1869 15.8095 12.2383V11.8812C15.8095 11.7865 15.7718 11.6956 15.7049 11.6287C15.6379 11.5617 15.5471 11.524 15.4523 11.524C15.3576 11.524 15.2668 11.5617 15.1998 11.6287C15.1328 11.6956 15.0952 11.7865 15.0952 11.8812V12.2383C15.0952 13.0592 14.7691 13.8465 14.1886 14.427C13.6081 15.0075 12.8209 15.3336 12 15.3336C11.179 15.3336 10.3918 15.0075 9.81129 14.427C9.23082 13.8465 8.90472 13.0592 8.90472 12.2383V11.8812Z" fill="#191C21"/>
</svg>
