<svg width="24" height="24" viewBox="0 0 24 24" fill="none" xmlns="http://www.w3.org/2000/svg">
<path d="M4.125 19V14.5H10.875V20.125H5.25C4.94531 20.125 4.67578 20.0078 4.44141 19.7734C4.23047 19.5625 4.125 19.3047 4.125 19ZM13.125 20.125V14.5H19.875V19C19.875 19.3047 19.7578 19.5625 19.5234 19.7734C19.3125 20.0078 19.0547 20.125 18.75 20.125H13.125ZM19.875 8.875C20.1797 8.875 20.4375 8.99219 20.6484 9.22656C20.8828 9.4375 21 9.69531 21 10V12.8125C21 12.9766 20.9414 13.1172 20.8242 13.2344C20.7305 13.3281 20.6016 13.375 20.4375 13.375H3.5625C3.39844 13.375 3.25781 13.3281 3.14062 13.2344C3.04688 13.1172 3 12.9766 3 12.8125V10C3 9.69531 3.10547 9.4375 3.31641 9.22656C3.55078 8.99219 3.82031 8.875 4.125 8.875H5.67188C5.4375 8.42969 5.32031 7.96094 5.32031 7.46875C5.32031 6.625 5.625 5.89844 6.23438 5.28906C6.84375 4.67969 7.57031 4.375 8.41406 4.375C9.11719 4.375 9.73828 4.5625 10.2773 4.9375C10.8164 5.3125 11.4023 5.92188 12.0352 6.76562C12.668 5.92188 13.2539 5.3125 13.793 4.9375C14.332 4.5625 14.9531 4.375 15.6562 4.375C16.5 4.375 17.2266 4.67969 17.8359 5.28906C18.4453 5.89844 18.75 6.625 18.75 7.46875C18.75 7.9375 18.6328 8.40625 18.3984 8.875H19.875ZM8.41406 8.875H11.4375C10.6172 7.63281 10.0078 6.85938 9.60938 6.55469C9.23438 6.22656 8.83594 6.0625 8.41406 6.0625C8.15625 6.0625 7.92188 6.13281 7.71094 6.27344C7.5 6.39062 7.32422 6.55469 7.18359 6.76562C7.06641 6.97656 7.00781 7.21094 7.00781 7.46875C7.00781 7.86719 7.13672 8.20703 7.39453 8.48828C7.67578 8.74609 8.01562 8.875 8.41406 8.875ZM15.6562 8.875C16.0547 8.875 16.3828 8.74609 16.6406 8.48828C16.9219 8.20703 17.0625 7.86719 17.0625 7.46875C17.0625 7.07031 16.9219 6.74219 16.6406 6.48438C16.3828 6.20312 16.0547 6.0625 15.6562 6.0625C15.375 6.0625 15.1289 6.10937 14.918 6.20312C14.7305 6.27344 14.4492 6.51953 14.0742 6.94141C13.6992 7.36328 13.2188 8.00781 12.6328 8.875H15.6562Z" fill="#219653"/>
</svg>
