<svg width="24" height="24" viewBox="0 0 24 24" fill="none" xmlns="http://www.w3.org/2000/svg">
<path d="M19.5938 19.1758C19.7344 19.2461 19.8281 19.3516 19.875 19.4922C19.9219 19.6562 19.9102 19.8086 19.8398 19.9492L19.3477 20.9336C19.2773 21.0742 19.1602 21.168 18.9961 21.2148C18.8555 21.2617 18.7266 21.25 18.6094 21.1797L12.0352 18.0156L5.46094 21.1797C5.34375 21.25 5.20312 21.2617 5.03906 21.2148C4.89844 21.168 4.79297 21.0742 4.72266 20.9336L4.23047 19.9492C4.16016 19.8086 4.14844 19.6562 4.19531 19.4922C4.24219 19.3516 4.33594 19.2461 4.47656 19.1758L9.46875 16.75L4.47656 14.3242C4.33594 14.2539 4.24219 14.1484 4.19531 14.0078C4.14844 13.8438 4.16016 13.6914 4.23047 13.5508L4.72266 12.5664C4.79297 12.4258 4.89844 12.332 5.03906 12.2852C5.20312 12.2383 5.34375 12.25 5.46094 12.3203L12.0352 15.4844L18.6094 12.3203C18.7266 12.25 18.8555 12.2383 18.9961 12.2852C19.1602 12.332 19.2773 12.4258 19.3477 12.5664L19.8398 13.5508C19.9102 13.6914 19.9219 13.8438 19.875 14.0078C19.8281 14.1484 19.7344 14.2539 19.5938 14.3242L14.6016 16.75L19.5938 19.1758ZM9.43359 11.582C8.68359 11.1836 8.08594 10.6445 7.64062 9.96484C7.19531 9.28516 6.97266 8.54688 6.97266 7.75C6.97266 6.50781 7.46484 5.45313 8.44922 4.58594C9.43359 3.69531 10.6289 3.25 12.0352 3.25C13.4414 3.25 14.6367 3.69531 15.6211 4.58594C16.6055 5.45313 17.0977 6.50781 17.0977 7.75C17.0977 8.54688 16.875 9.28516 16.4297 9.96484C15.9844 10.6445 15.3867 11.1836 14.6367 11.582L14.8477 12.4961C14.8945 12.7305 14.8477 12.9414 14.707 13.1289C14.5898 13.293 14.4375 13.375 14.25 13.375H9.82031C9.63281 13.375 9.48047 13.293 9.36328 13.1289C9.24609 12.9414 9.21094 12.7305 9.25781 12.4961L9.43359 11.582ZM14.7773 7.53906C14.5664 7.30469 14.3086 7.1875 14.0039 7.1875C13.6992 7.1875 13.4297 7.30469 13.1953 7.53906C12.9844 7.75 12.8789 8.00781 12.8789 8.3125C12.8789 8.61719 12.9844 8.88672 13.1953 9.12109C13.4297 9.33203 13.6992 9.4375 14.0039 9.4375C14.3086 9.4375 14.5664 9.33203 14.7773 9.12109C15.0117 8.88672 15.1289 8.61719 15.1289 8.3125C15.1289 8.00781 15.0117 7.75 14.7773 7.53906ZM10.8398 7.53906C10.6289 7.30469 10.3711 7.1875 10.0664 7.1875C9.76172 7.1875 9.49219 7.30469 9.25781 7.53906C9.04688 7.75 8.94141 8.00781 8.94141 8.3125C8.94141 8.61719 9.04688 8.88672 9.25781 9.12109C9.49219 9.33203 9.76172 9.4375 10.0664 9.4375C10.3711 9.4375 10.6289 9.33203 10.8398 9.12109C11.0742 8.88672 11.1914 8.61719 11.1914 8.3125C11.1914 8.00781 11.0742 7.75 10.8398 7.53906Z" fill="#DA1414"/>
</svg>
