<svg width="24" height="24" viewBox="0 0 24 24" fill="none" xmlns="http://www.w3.org/2000/svg">
<path d="M13.1602 9.12109C11.332 8.74609 9.79688 7.86719 8.55469 6.48438C8.95312 5.33594 9.52734 4.32813 10.2773 3.46094C10.4414 3.27344 10.6289 3.21484 10.8398 3.28516C11.0742 3.35547 11.2148 3.50781 11.2617 3.74219C11.4961 5.35938 12.1289 6.82422 13.1602 8.13672V9.12109ZM17.0977 5.5H21.0352L19.9102 7.75V13.375C19.9102 14.9219 19.3594 16.2461 18.2578 17.3477C17.1562 18.4492 15.832 19 14.2852 19H11.5781L9.29297 20.9688C9.05859 21.1562 8.80078 21.25 8.51953 21.25C6.01172 21.1562 4.21875 20.2656 3.14062 18.5781C3.02344 18.4141 3 18.2383 3.07031 18.0508C3.14062 17.8633 3.26953 17.7461 3.45703 17.6992L8.51953 16.4336C8.00391 16.0586 7.54688 15.6719 7.14844 15.2734C5.15625 13.375 4.16016 11.207 4.16016 8.76953C4.16016 7.33984 4.46484 5.98047 5.07422 4.69141C5.16797 4.48047 5.33203 4.375 5.56641 4.375C5.82422 4.375 6 4.49219 6.09375 4.72656C6.79688 6.34375 7.875 7.66797 9.32812 8.69922C10.8047 9.73047 12.457 10.3047 14.2852 10.4219V8.3125C14.2852 7.53906 14.5547 6.88281 15.0938 6.34375C15.6562 5.78125 16.3242 5.5 17.0977 5.5ZM16.6758 8.73438C16.793 8.82812 16.9336 8.875 17.0977 8.875C17.2617 8.875 17.3906 8.82812 17.4844 8.73438C17.6016 8.61719 17.6602 8.47656 17.6602 8.3125C17.6602 8.14844 17.6016 8.01953 17.4844 7.92578C17.3906 7.80859 17.2617 7.75 17.0977 7.75C16.9336 7.75 16.793 7.80859 16.6758 7.92578C16.582 8.01953 16.5352 8.14844 16.5352 8.3125C16.5352 8.47656 16.582 8.61719 16.6758 8.73438Z" fill="#00B4C4"/>
</svg>
