<svg width="24" height="24" viewBox="0 0 24 24" fill="none" xmlns="http://www.w3.org/2000/svg">
<ellipse cx="12" cy="12" rx="12" ry="12" fill="#F2994A"/>
<g clip-path="url(#clip0)">
<path d="M16.4447 7.55545C16.2321 7.55606 16.0216 7.59756 15.8247 7.67768C15.7612 7.43173 15.6417 7.20382 15.4754 7.01182C15.3091 6.81982 15.1006 6.66893 14.8662 6.57099C14.6318 6.47304 14.378 6.4307 14.1245 6.44729C13.8711 6.46387 13.6249 6.53892 13.4053 6.66657C13.2563 6.42836 13.0491 6.23194 12.8034 6.09578C12.5576 5.95962 12.2812 5.88818 12.0003 5.88818C11.7193 5.88818 11.4429 5.95962 11.1972 6.09578C10.9514 6.23194 10.7443 6.42836 10.5953 6.66657C10.3469 6.52258 10.0652 6.44598 9.77805 6.44434C9.33602 6.44434 8.9121 6.61994 8.59954 6.9325C8.28698 7.24506 8.11138 7.66898 8.11138 8.11101V9.79212C7.63339 9.42445 7.04775 9.22416 6.44472 9.22212C6.29737 9.22212 6.15607 9.28065 6.05188 9.38484C5.94769 9.48903 5.88916 9.63033 5.88916 9.77768V13.111C5.89063 14.4366 6.41789 15.7076 7.35525 16.6449C8.29261 17.5823 9.56353 18.1095 10.8892 18.111H13.1114C14.437 18.1095 15.7079 17.5823 16.6453 16.6449C17.5827 15.7076 18.1099 14.4366 18.1114 13.111V9.77768C18.1114 8.13934 17.2503 7.55545 16.4447 7.55545ZM17.0003 13.111C16.9989 14.142 16.5888 15.1304 15.8598 15.8594C15.1308 16.5884 14.1424 16.9986 13.1114 16.9999H10.8892C9.85817 16.9986 8.86978 16.5884 8.14076 15.8594C7.41174 15.1304 7.00159 14.142 7.00027 13.111V10.4282C7.325 10.5436 7.6061 10.7565 7.80502 11.0379C8.00395 11.3193 8.11096 11.6553 8.11138 11.9999C8.11138 12.1472 8.16991 12.2885 8.2741 12.3927C8.37829 12.4969 8.5196 12.5555 8.66694 12.5555C8.81428 12.5555 8.95559 12.4969 9.05978 12.3927C9.16396 12.2885 9.22249 12.1472 9.22249 11.9999V8.11101C9.22249 7.96367 9.28103 7.82236 9.38521 7.71817C9.4894 7.61399 9.63071 7.55545 9.77805 7.55545C9.92539 7.55545 10.0667 7.61399 10.1709 7.71817C10.2751 7.82236 10.3336 7.96367 10.3336 8.11101V10.8888C10.3336 11.0361 10.3921 11.1774 10.4963 11.2816C10.6005 11.3858 10.7418 11.4443 10.8892 11.4443C11.0365 11.4443 11.1778 11.3858 11.282 11.2816C11.3862 11.1774 11.4447 11.0361 11.4447 10.8888V7.55545C11.4447 7.40811 11.5032 7.2668 11.6074 7.16262C11.7116 7.05843 11.8529 6.9999 12.0003 6.9999C12.1476 6.9999 12.2889 7.05843 12.3931 7.16262C12.4973 7.2668 12.5558 7.40811 12.5558 7.55545V10.8888C12.5558 11.0361 12.6144 11.1774 12.7185 11.2816C12.8227 11.3858 12.964 11.4443 13.1114 11.4443C13.2587 11.4443 13.4 11.3858 13.5042 11.2816C13.6084 11.1774 13.6669 11.0361 13.6669 10.8888V8.11101C13.6669 7.96367 13.7255 7.82236 13.8297 7.71817C13.9338 7.61399 14.0752 7.55545 14.2225 7.55545C14.3698 7.55545 14.5111 7.61399 14.6153 7.71817C14.7195 7.82236 14.778 7.96367 14.778 8.11101V10.8888C14.778 11.0361 14.8366 11.1774 14.9408 11.2816C15.045 11.3858 15.1863 11.4443 15.3336 11.4443C15.4809 11.4443 15.6223 11.3858 15.7264 11.2816C15.8306 11.1774 15.8892 11.0361 15.8892 10.8888V9.22212C15.8892 9.07478 15.9477 8.93347 16.0519 8.82928C16.1561 8.7251 16.2974 8.66657 16.4447 8.66657C16.9447 8.66657 17.0003 9.44434 17.0003 9.77768V13.111Z" fill="#FEFEFE"/>
</g>
<defs>
<clipPath id="clip0">
<rect width="13.3333" height="13.3333" fill="white" transform="translate(5.3335 5.33325)"/>
</clipPath>
</defs>
</svg>
