<svg width="18" height="18" viewBox="0 0 18 18" fill="none" xmlns="http://www.w3.org/2000/svg">
<path d="M2.8125 3.09766C4.52344 1.38672 6.58594 0.53125 9 0.53125C11.4141 0.53125 13.4648 1.38672 15.1523 3.09766C16.8633 4.78516 17.7188 6.83594 17.7188 9.25C17.7188 11.6641 16.8633 13.7266 15.1523 15.4375C13.4648 17.125 11.4141 17.9688 9 17.9688C6.58594 17.9688 4.52344 17.125 2.8125 15.4375C1.125 13.7266 0.28125 11.6641 0.28125 9.25C0.28125 6.83594 1.125 4.78516 2.8125 3.09766ZM12.5859 6.78906C12.375 6.55469 12.1172 6.4375 11.8125 6.4375C11.5078 6.4375 11.2383 6.55469 11.0039 6.78906C10.793 7 10.6875 7.25781 10.6875 7.5625C10.6875 7.86719 10.793 8.13672 11.0039 8.37109C11.2383 8.58203 11.5078 8.6875 11.8125 8.6875C12.1172 8.6875 12.375 8.58203 12.5859 8.37109C12.8203 8.13672 12.9375 7.86719 12.9375 7.5625C12.9375 7.25781 12.8203 7 12.5859 6.78906ZM4.42969 14.3828C4.75781 14.7109 5.15625 14.875 5.625 14.875C6.09375 14.875 6.49219 14.7109 6.82031 14.3828C7.14844 14.0547 7.3125 13.668 7.3125 13.2227C7.3125 12.6836 6.82031 11.7695 5.83594 10.4805C5.78906 10.4102 5.71875 10.375 5.625 10.375C5.53125 10.375 5.46094 10.4102 5.41406 10.4805C4.42969 11.7695 3.9375 12.6836 3.9375 13.2227C3.9375 13.668 4.10156 14.0547 4.42969 14.3828ZM5.37891 8.37109C5.61328 8.58203 5.88281 8.6875 6.1875 8.6875C6.49219 8.6875 6.75 8.58203 6.96094 8.37109C7.19531 8.13672 7.3125 7.86719 7.3125 7.5625C7.3125 7.25781 7.19531 7 6.96094 6.78906C6.75 6.55469 6.49219 6.4375 6.1875 6.4375C5.88281 6.4375 5.61328 6.55469 5.37891 6.78906C5.16797 7 5.0625 7.25781 5.0625 7.5625C5.0625 7.86719 5.16797 8.13672 5.37891 8.37109ZM12.1641 14.1016C12.3047 14.2891 12.4805 14.3594 12.6914 14.3125C12.9258 14.2656 13.0664 14.1484 13.1133 13.9609C13.1836 13.7734 13.1602 13.5859 13.043 13.3984C11.9883 12.1328 10.6406 11.5 9 11.5C8.625 11.5 8.4375 11.6875 8.4375 12.0625C8.4375 12.4375 8.625 12.625 9 12.625C10.2891 12.625 11.3438 13.1172 12.1641 14.1016Z" fill="#B8BBBF"/>
</svg>
