<svg width="24" height="24" viewBox="0 0 24 24" fill="none" xmlns="http://www.w3.org/2000/svg">
<path fill-rule="evenodd" clip-rule="evenodd" d="M21.7728 2.36521C21.7522 2.34023 21.7304 2.3161 21.7072 2.29292C21.6864 2.2721 21.6648 2.25233 21.6425 2.23364C21.4788 2.09611 21.2814 2.01931 21.0801 2.00322C21.0201 1.99839 20.9594 1.99897 20.8989 2.00512C20.8102 2.01408 20.7225 2.03486 20.6383 2.06746L2.66043 8.55947C2.63435 8.56889 2.60868 8.57939 2.58347 8.59094C2.31366 8.71458 2.08501 8.9131 1.92471 9.16288C1.76441 9.41267 1.6792 9.70323 1.6792 10C1.6792 10.2968 1.76441 10.5874 1.92471 10.8372C2.08118 11.081 2.30276 11.276 2.56419 11.4001L9.25471 14.7454L12.6 21.4359C12.7242 21.6974 12.9191 21.9189 13.1629 22.0754C13.4127 22.2357 13.7033 22.3209 14.0001 22.3209C14.2969 22.3209 14.5874 22.2357 14.8372 22.0754C15.087 21.9151 15.2855 21.6864 15.4092 21.4166C15.4207 21.3914 15.4312 21.3657 15.4406 21.3397L21.9341 3.35769C21.9552 3.3024 21.9713 3.24562 21.9823 3.18807C22.0044 3.07261 22.0057 2.95533 21.9874 2.84147C21.9602 2.67083 21.8886 2.5059 21.7728 2.36521ZM17.1223 5.46355L4.37183 10.0679L9.80257 12.7832L17.1223 5.46355ZM11.2168 14.1974L18.5366 6.87761L13.9322 19.6283L11.2168 14.1974Z" fill="#FEFEFE"/>
</svg>
