<svg width="24" height="24" viewBox="0 0 24 24" fill="none" xmlns="http://www.w3.org/2000/svg">
<ellipse cx="12" cy="12" rx="12" ry="12" fill="#DA1414"/>
<path d="M7.35 7.35C7.13333 7.56667 7.13333 7.91667 7.35 8.13333L9.38333 10.1667L9.22222 10.3333H7.55556C7.25 10.3333 7 10.5833 7 10.8889V13.1111C7 13.4167 7.25 13.6667 7.55556 13.6667H9.22222L11.05 15.4944C11.4 15.8444 12 15.5944 12 15.1V12.7833L14.3222 15.1056C14.05 15.3111 13.7556 15.4833 13.4333 15.6111C13.2333 15.6944 13.1111 15.9056 13.1111 16.1222C13.1111 16.5222 13.5167 16.7778 13.8833 16.6278C14.3278 16.4444 14.7444 16.2 15.1167 15.9L15.8611 16.6444C16.0778 16.8611 16.4278 16.8611 16.6444 16.6444C16.8611 16.4278 16.8611 16.0778 16.6444 15.8611L8.13889 7.35C7.92222 7.13333 7.57222 7.13333 7.35 7.35ZM15.8889 12C15.8889 12.4556 15.8056 12.8944 15.6611 13.3L16.5111 14.15C16.8222 13.5 17 12.7722 17 12C17 9.87222 15.6667 8.05 13.7889 7.33333C13.4611 7.20556 13.1111 7.46111 13.1111 7.81111V7.91667C13.1111 8.12778 13.25 8.31111 13.45 8.38889C14.8778 8.96667 15.8889 10.3667 15.8889 12ZM11.05 8.50556L10.9556 8.6L12 9.64444V8.89444C12 8.4 11.4 8.15556 11.05 8.50556ZM14.5 12C14.5 11.0167 13.9333 10.1722 13.1111 9.76111V10.7556L14.4889 12.1333C14.4944 12.0889 14.5 12.0444 14.5 12Z" fill="#FEFEFE"/>
</svg>
