<svg width="25" height="25" viewBox="0 0 25 25" fill="none" xmlns="http://www.w3.org/2000/svg">
<path d="M12.0806 2.62549C9.80472 2.62549 7.53916 2.62549 5.26333 2.62549C3.53084 2.62549 2.42368 3.7429 2.42368 5.48564C2.42368 9.4017 2.42368 13.3075 2.42368 17.2235C2.42368 18.9252 3.54109 20.0529 5.24283 20.0529C9.78422 20.0529 14.3359 20.0529 18.8773 20.0529C20.579 20.0529 21.6964 18.9252 21.6964 17.2235C21.6964 13.3075 21.6964 9.4017 21.6964 5.48564C21.6964 3.7429 20.5893 2.62549 18.8465 2.62549C16.5912 2.62549 14.3359 2.62549 12.0806 2.62549Z" fill="#FB9600"/>
<path fill-rule="evenodd" clip-rule="evenodd" d="M22.3115 4.67563V18.0025C22.3115 20.0528 20.4662 20.7909 18.785 20.6679C17.2165 20.6679 15.6378 20.6576 14.0693 20.6781C13.8438 20.6781 13.5773 20.8012 13.4235 20.9549C12.9622 21.3957 12.5419 21.8878 12.06 22.4004C11.5885 21.8878 11.1682 21.406 10.6966 20.9549C10.5326 20.8012 10.266 20.6781 10.0508 20.6781C8.39003 20.6576 6.73954 20.6884 5.07881 20.6576C4.09125 20.6987 2.05463 20.223 1.80859 17.9923V4.66538C1.80859 2.87754 3.34631 2 4.47397 2H19.6461C20.5346 2.0991 22.3115 2.77298 22.3115 4.67563ZM5.26333 2.62534H12.0806H18.8465C20.5893 2.62534 21.6964 3.74275 21.6964 5.48549V17.2234C21.6964 18.9251 20.579 20.0528 18.8773 20.0528H5.24283C3.54109 20.0528 2.42368 18.9251 2.42368 17.2234V5.48549C2.42368 3.74275 3.53084 2.62534 5.26333 2.62534Z" fill="#FB9600"/>
<path d="M12.0807 2.62549C14.336 2.62549 16.5913 2.62549 18.8467 2.62549C20.5792 2.62549 21.6863 3.7429 21.6966 5.48564C21.6966 9.4017 21.6966 13.3075 21.6966 17.2236C21.6966 18.9253 20.5792 20.053 18.8774 20.053C14.336 20.053 9.78437 20.053 5.24298 20.053C3.54124 20.053 2.42383 18.9253 2.42383 17.2236C2.42383 13.3075 2.42383 9.4017 2.42383 5.48564C2.42383 3.7429 3.53099 2.62549 5.26348 2.62549C7.5393 2.62549 9.81513 2.62549 12.0807 2.62549ZM16.6939 8.85837C16.4786 8.64309 16.335 8.50982 16.2018 8.3663C15.6174 7.72046 15.0536 7.05412 14.459 6.41853C14.3668 6.31601 14.1617 6.24425 14.0285 6.26475C13.9567 6.27501 13.8542 6.51079 13.8644 6.63381C13.9875 7.80247 14.1207 8.97114 14.2848 10.1398C14.3053 10.2731 14.5 10.3756 14.6231 10.4986C14.7153 10.3551 14.8281 10.2218 14.8896 10.068C14.9203 10.0065 14.8691 9.90402 14.8588 9.82201C14.7768 9.10441 14.6128 8.38677 14.5205 7.66917C14.5615 7.63842 14.4795 7.34113 14.5205 7.31037C14.5923 7.42314 14.8588 7.80247 14.9511 7.90499C15.5559 8.59183 16.1608 9.28893 16.7861 9.96553C16.8886 10.0783 17.0937 10.109 17.2474 10.1706C17.2987 10.027 17.4217 9.86301 17.4012 9.72974C17.2884 8.61234 17.1552 7.49493 17.0014 6.37752C16.9809 6.2135 16.7656 6.06998 16.6426 5.9162C16.5606 6.11098 16.3863 6.30576 16.4068 6.49029C16.4888 7.24889 16.5913 7.99725 16.6939 8.85837ZM9.38456 9.0634C9.45632 9.58622 9.51783 10.0578 9.57934 10.5191C9.61009 10.7651 9.58959 11.1034 9.9689 11.0214C10.0919 10.9907 10.2149 10.6421 10.1944 10.4576C10.0919 9.37094 9.94839 8.28429 9.79462 7.20789C9.77412 7.05412 9.57934 6.9311 9.46658 6.78758C9.37431 6.9516 9.21029 7.11562 9.20004 7.2899C9.18979 7.65895 9.26155 8.028 9.31281 8.43806C8.5542 8.63284 7.82634 8.82762 7.07799 9.0224C7.00623 8.45857 6.97547 7.97675 6.87296 7.51543C6.8422 7.37191 6.62692 7.25914 6.5039 7.13613C6.42189 7.30015 6.25787 7.47443 6.26812 7.6282C6.38089 8.74561 6.51416 9.86301 6.67818 10.9804C6.69868 11.1444 6.92422 11.2675 7.05749 11.4212C7.1395 11.2367 7.29327 11.0624 7.29327 10.8779C7.29327 10.4781 7.21126 10.0783 7.16 9.65798C7.8981 9.46321 8.60545 9.26843 9.38456 9.0634ZM14.131 14.3532C14.1207 14.1789 14.1207 14.0149 14.1002 13.8406C13.967 13 13.3724 12.3336 12.6753 12.2311C11.9474 12.1183 11.2606 12.5079 10.9018 13.246C10.5122 14.0559 10.5225 14.8657 10.9428 15.6551C11.5271 16.7315 12.7778 16.8648 13.5774 15.9524C13.9772 15.5013 14.1515 14.958 14.131 14.3532ZM12.7368 9.20692C12.9316 9.58622 13.0751 9.95528 13.2904 10.2833C13.3826 10.4268 13.6082 10.4986 13.7619 10.6011C13.7927 10.4063 13.8952 10.1808 13.8337 10.027C13.3416 8.94038 12.8086 7.87423 12.2755 6.80808C12.2037 6.66456 12.0294 6.56205 11.8962 6.44928C11.7834 6.5928 11.6091 6.72607 11.5579 6.90034C11.3631 7.53593 11.2401 8.19203 11.0248 8.81737C10.8813 9.24793 10.8505 9.46318 10.6865 10.1296C10.6739 10.1808 10.42 10.8328 10.8505 10.9189C11.3118 11.0112 11.1991 10.4781 11.3323 10.2218C11.4451 10.0065 11.5066 9.71949 11.6809 9.60673C11.9987 9.4017 12.378 9.32994 12.7368 9.20692ZM18.6929 8.50982C19.3797 8.91988 19.9538 9.28893 20.5484 9.60673C20.7022 9.68874 20.9277 9.60673 21.1327 9.59647C21.061 9.43245 21.1942 9.40167 21.0815 9.25815C21.0097 9.15563 20.6714 8.96088 20.5484 8.88912C19.9846 8.55083 19.4207 8.20228 18.8262 7.84348C19.3592 7.25914 19.8718 6.72607 20.3331 6.17249C20.4561 6.02897 20.5586 5.67017 20.4869 5.58816C20.2306 5.31137 20.0563 5.58816 19.882 5.77268C19.7283 5.93671 19.5848 6.10073 19.431 6.2545C19.1542 6.55179 18.8672 6.84909 18.5391 7.19764C18.4879 6.80808 18.4879 6.50054 18.3956 6.234C18.3341 6.04947 18.1598 5.8957 18.0265 5.73168C17.9445 5.9162 17.7805 6.10073 17.801 6.275C17.9138 7.39241 18.047 8.50982 18.2111 9.61698C18.2316 9.7605 18.4366 9.87327 18.5596 9.99628C18.6416 9.85276 18.7954 9.70924 18.7954 9.55547C18.8159 9.25818 18.7441 8.94038 18.6929 8.50982ZM17.4422 13.7996C17.432 14.0148 17.4422 14.3224 17.3909 14.6197C17.2987 15.1118 16.9809 15.3885 16.4888 15.4603C15.9968 15.5321 15.6687 15.2963 15.4739 14.8657C15.3612 14.5992 15.2586 14.3224 15.2074 14.0456C15.1049 13.4408 15.0434 12.8257 14.9306 12.2311C14.9101 12.1183 14.7153 11.9851 14.5923 11.9646C14.5205 11.9543 14.3258 12.1593 14.336 12.2619C14.4488 13.2767 14.4283 14.3121 14.9614 15.2348C15.3509 15.9114 15.9557 16.1779 16.6836 16.0344C17.432 15.8909 17.9445 15.4501 17.9855 14.6709C18.0368 13.7586 17.924 12.8462 17.842 11.9338C17.8318 11.821 17.6062 11.7185 17.4832 11.6058C17.4012 11.7493 17.2372 11.8928 17.2474 12.0261C17.2884 12.5899 17.3704 13.1537 17.4422 13.7996ZM8.74898 14.9375C8.26716 14.3019 7.83659 13.7381 7.39578 13.164C7.25226 12.9795 7.08824 12.7027 6.8422 12.959C6.74994 13.0512 6.8217 13.3998 6.92421 13.5638C7.201 13.9943 7.4983 14.4147 7.84685 14.7837C8.34917 15.3168 8.5337 15.8294 8.08263 16.4855C8.01087 16.588 8.13389 16.8237 8.17489 17.0083C8.32867 16.9263 8.56445 16.875 8.62596 16.752C9.17953 15.5423 9.72286 14.3326 10.2354 13.1025C10.2969 12.9487 10.1739 12.7232 10.1432 12.5386C9.9894 12.6514 9.75361 12.7232 9.68185 12.8769C9.35381 13.5228 9.07702 14.1994 8.74898 14.9375ZM4.00255 8.13052C4.03331 8.28429 4.05381 8.39706 4.07431 8.50982C4.18708 9.4222 4.27934 10.3448 4.42286 11.247C4.44336 11.4007 4.6689 11.534 4.80217 11.6673C4.87393 11.5032 5.00719 11.3392 5.01744 11.1752C5.0277 10.9087 4.96619 10.6319 4.93543 10.3653C4.84317 9.59647 4.76116 8.82762 4.6689 8.01775C5.00719 7.97675 5.29423 7.97675 5.55052 7.90499C5.69404 7.86398 5.79656 7.67945 5.91957 7.56669C5.77605 7.47442 5.63253 7.30015 5.50952 7.3104C4.6894 7.38216 3.87953 7.47443 3.06967 7.59744C2.9364 7.61795 2.83389 7.82297 2.72112 7.94599C2.86464 8.03825 2.99791 8.19203 3.14143 8.20228C3.40797 8.22278 3.69501 8.16127 4.00255 8.13052Z" fill="white"/>
<path d="M16.6944 8.85819C16.5919 8.00732 16.4689 7.2487 16.4176 6.49009C16.4073 6.30557 16.3971 5.95707 16.6636 5.91602C16.9302 5.87498 16.9917 6.21331 17.0224 6.37734C17.1864 7.49475 17.3095 8.61215 17.4222 9.72956C17.4325 9.87308 17.494 10.1396 17.2685 10.1704C17.0429 10.2011 16.9097 10.0781 16.8071 9.96534C16.1818 9.28875 15.536 8.62239 14.9311 7.9253C14.8491 7.82278 14.7261 7.66901 14.6236 7.51524C14.5826 7.54599 14.6189 7.61775 14.6236 7.65877C14.7056 8.37637 14.7876 9.10422 14.8799 9.82183C14.9448 10.0337 14.9885 10.4657 14.6441 10.4984C14.4083 10.5087 14.3263 10.2729 14.3058 10.1396C14.1418 8.97096 14.0085 7.80229 13.8855 6.63362C13.8752 6.51061 13.9777 6.27482 14.0495 6.26457C14.1828 6.24407 14.3878 6.31583 14.4801 6.41834C15.0746 7.05393 15.6385 7.71003 16.2228 8.36612C16.3356 8.50964 16.4894 8.64291 16.6944 8.85819Z" fill="#FB9600"/>
<path d="M9.38314 9.06325C8.60403 9.26828 7.89668 9.46305 7.14833 9.65783C7.19958 10.0781 7.27134 10.4779 7.28159 10.8778C7.28159 11.0623 7.28159 11.4108 7.04581 11.4211C6.81003 11.4314 6.69726 11.1443 6.66651 10.9803C6.50248 9.86286 6.36922 8.74545 6.25645 7.62805C6.2462 7.47427 6.2564 7.16677 6.49224 7.13598C6.72807 7.10518 6.83053 7.37176 6.86128 7.51528C6.9638 7.97659 6.99455 8.45841 7.06631 9.02224C7.82492 8.82747 8.54252 8.63269 9.30113 8.43791C9.26013 8.02785 9.18837 7.6588 9.18837 7.28975C9.18837 7.12572 9.15759 6.82847 9.4549 6.78743C9.75221 6.74638 9.76245 7.05396 9.78295 7.20774C9.93672 8.28414 10.0802 9.37079 10.1828 10.4574C10.2033 10.642 10.07 10.9905 9.95722 11.0213C9.58817 11.1135 9.59842 10.7752 9.56767 10.519C9.51641 10.0576 9.4549 9.58607 9.38314 9.06325Z" fill="#FB9600"/>
<path d="M14.1304 14.353C14.1509 14.9579 13.9766 15.5012 13.5666 15.9523C12.7567 16.8647 11.506 16.7314 10.9319 15.655C10.5116 14.8656 10.5014 14.0558 10.8909 13.2459C11.2497 12.4975 11.9366 12.1182 12.6644 12.231C13.3718 12.3335 13.9561 12.9999 14.0894 13.8405C14.1304 14.0148 14.1201 14.189 14.1304 14.353ZM11.1882 14.3428C11.2907 14.6913 11.342 15.0809 11.506 15.3987C11.8546 16.0753 12.6439 16.1778 13.0847 15.5627C13.3308 15.2142 13.464 14.7324 13.4845 14.3018C13.5153 13.4304 12.9822 12.8051 12.3364 12.8256C11.7315 12.8461 11.2702 13.4919 11.1882 14.3428Z" fill="#FB9600"/>
<path d="M12.7375 9.20647C12.3787 9.32949 11.9994 9.4115 11.6918 9.59603C11.5176 9.70879 11.456 9.99584 11.3433 10.2111C11.21 10.4674 11.3228 11.0005 10.8615 10.9082C10.3694 10.816 10.8102 10.3341 10.6974 10.1189C10.8615 9.51402 10.8922 9.23723 11.0357 8.80667C11.2408 8.18133 11.374 7.52524 11.5688 6.88965C11.6201 6.72562 11.7021 6.48984 11.9071 6.43858C12.1121 6.38733 12.2147 6.65386 12.2864 6.79738C12.8195 7.86353 13.3423 8.92968 13.8446 10.0163C13.9164 10.1701 14.0086 10.4879 13.7729 10.5904C13.5371 10.6929 13.3936 10.4161 13.3013 10.2726C13.0758 9.95483 12.9323 9.58578 12.7375 9.20647ZM11.6816 8.90918C11.9891 8.79642 12.2146 8.7144 12.4607 8.62214C12.2967 8.30435 12.1736 8.03781 11.9994 7.67901C11.8764 8.14032 11.7943 8.47862 11.6816 8.90918Z" fill="#FB9600"/>
<path d="M18.6931 8.50961C18.7444 8.94017 18.8161 9.25796 18.8059 9.57576C18.8059 9.71928 18.8059 9.97553 18.5701 10.0166C18.3343 10.0576 18.2421 9.77054 18.2216 9.63727C18.0575 8.53011 17.9243 7.4127 17.8115 6.29529C17.791 6.12102 17.7602 5.78275 18.037 5.75196C18.3139 5.72118 18.3446 6.06976 18.4061 6.25429C18.4881 6.52082 18.4984 6.82837 18.5496 7.21792C18.8777 6.86937 19.1647 6.57208 19.4415 6.27479C19.5953 6.11076 19.7388 5.94674 19.8926 5.79297C20.0668 5.60844 20.2411 5.3214 20.4974 5.60844C20.5794 5.69046 20.4666 6.04926 20.3436 6.19278C19.8823 6.75661 19.3697 7.27943 18.8367 7.86376C19.4312 8.22256 19.9951 8.57111 20.5589 8.90941C20.6717 8.98117 20.7742 9.0529 20.9074 9.12469C21.133 9.25793 21.2867 9.46296 21.1432 9.61676C20.9997 9.77057 20.7127 9.70903 20.5589 9.62701C19.9541 9.28872 19.3902 8.91966 18.6931 8.50961Z" fill="#FB9600"/>
<path d="M17.4001 13.7176C17.3283 13.0717 17.2873 12.59 17.2566 12.0364C17.2463 11.9031 17.2362 11.6673 17.4924 11.6161C17.7486 11.5648 17.8409 11.8211 17.8512 11.9441C17.9229 12.8565 18.0357 13.7791 17.9947 14.6812C17.9537 15.4604 17.4309 15.9012 16.6928 16.0447C15.9649 16.1882 15.3498 15.9217 14.9705 15.2451C14.4374 14.3224 14.4579 13.287 14.3452 12.2722C14.3349 12.1799 14.376 12.0056 14.6015 11.9749C14.8269 11.9441 14.9193 12.1286 14.9398 12.2414C15.0525 12.8462 15.114 13.4511 15.2165 14.0559C15.2678 14.3327 15.3703 14.6197 15.4831 14.876C15.6779 15.3066 16.0059 15.5424 16.498 15.4706C16.99 15.3988 17.3078 15.1118 17.4001 14.63C17.4411 14.3224 17.3899 13.9329 17.4001 13.7176Z" fill="#FB9600"/>
<path d="M8.74816 14.9373C9.0762 14.189 9.36324 13.5124 9.68104 12.8665C9.7528 12.7127 9.91689 12.4667 10.1424 12.5282C10.3678 12.5897 10.2961 12.9485 10.2346 13.092C9.72204 14.3222 9.18897 15.5319 8.62514 16.7416C8.56363 16.8748 8.36878 17.1003 8.17407 16.9978C7.97937 16.8954 8.01005 16.5878 8.08181 16.475C8.53288 15.8189 8.34835 15.3064 7.84603 14.7733C7.49748 14.4042 7.18993 13.9839 6.9234 13.5534C6.82088 13.3893 6.74912 13.0408 6.84139 12.9485C7.08742 12.6922 7.25144 12.969 7.39496 13.1536C7.82552 13.7379 8.26634 14.312 8.74816 14.9373Z" fill="#FB9600"/>
<path d="M4.00387 8.13027C3.69632 8.16103 3.40928 8.22254 3.13249 8.20203C2.98897 8.19178 2.73261 8.13027 2.71218 7.94574C2.69176 7.76122 2.92747 7.6177 3.06073 7.5972C3.8706 7.47418 4.68046 7.38192 5.50058 7.31016C5.63385 7.2999 5.91056 7.36144 5.91064 7.56644C5.91071 7.77144 5.6851 7.86373 5.54158 7.90474C5.2853 7.98675 5.00851 7.9765 4.65996 8.0175C4.75222 8.81712 4.84449 9.58598 4.9265 10.3651C4.95725 10.6316 5.02901 10.9084 5.00851 11.175C4.99826 11.339 5.00851 11.6157 4.79323 11.667C4.57795 11.7183 4.43443 11.4005 4.41392 11.2467C4.2704 10.3343 4.17814 9.42196 4.06538 8.50958C4.05512 8.39681 4.02437 8.28404 4.00387 8.13027Z" fill="#FB9600"/>
<path d="M11.1895 14.3424C11.1893 13.5838 11.7328 12.8457 12.3376 12.8252C12.9835 12.8047 13.5165 13.43 13.4858 14.3014C13.4653 14.732 13.332 15.224 13.086 15.5623C12.6452 16.1774 11.7533 15.8186 11.5482 15.5111C11.343 15.2035 11.1896 15.101 11.1895 14.3424Z" fill="white"/>
<path d="M11.6797 8.90937C11.7925 8.47881 11.8745 8.14051 11.9872 7.6792C12.1615 8.038 12.2948 8.29428 12.4485 8.62233C12.2128 8.71459 11.9975 8.79661 11.6797 8.90937Z" fill="white"/>
</svg>
