<svg width="24" height="24" viewBox="0 0 24 24" fill="none" xmlns="http://www.w3.org/2000/svg">
<path d="M20 3H4C2.9 3 2 3.9 2 5V16C2 17.1 2.9 18 4 18H7L6.41421 18.5858C6.149 18.851 6 19.2107 6 19.5858V19.5858C6 20.3668 6.63317 21 7.41421 21H16.5858C17.3668 21 18 20.3668 18 19.5858V19.5858C18 19.2107 17.851 18.851 17.5858 18.5858L17 18H20C21.1 18 22 17.1 22 16V5C22 3.9 21.1 3 20 3ZM20 16H4V5H20V16Z" fill="#DA1414"/>
<path d="M14.488 11.585L13.6 10L11.112 14.4539C10.984 14.6977 10.704 14.8484 10.4 14.8484C10.096 14.8484 9.816 14.6977 9.688 14.4539L8.304 11.9795H4V17H20V11.9795H15.2C14.896 11.9795 14.616 11.8289 14.488 11.585Z" fill="#DA1414"/>
<path d="M20 5H4V10.0205H8.8C9.104 10.0205 9.384 10.1711 9.512 10.415L10.4 12L12.888 7.54611C12.9543 7.42676 13.0565 7.32635 13.183 7.25617C13.3095 7.186 13.4553 7.14882 13.604 7.14882C13.7527 7.14882 13.8985 7.186 14.025 7.25617C14.1515 7.32635 14.2537 7.42676 14.32 7.54611L15.696 10.0205H20V5Z" fill="#DA1414"/>
</svg>
