<svg width="18" height="18" viewBox="0 0 18 18" fill="none" xmlns="http://www.w3.org/2000/svg">
<path d="M2.8125 3.09766C4.52344 1.38672 6.58594 0.53125 9 0.53125C11.4141 0.53125 13.4648 1.38672 15.1523 3.09766C16.8633 4.78516 17.7188 6.83594 17.7188 9.25C17.7188 11.6641 16.8633 13.7266 15.1523 15.4375C13.4648 17.125 11.4141 17.9688 9 17.9688C6.58594 17.9688 4.52344 17.125 2.8125 15.4375C1.125 13.7266 0.28125 11.6641 0.28125 9.25C0.28125 6.83594 1.125 4.78516 2.8125 3.09766ZM10.1953 7.21094C10.0547 7.28125 9.98438 7.39844 9.98438 7.5625C9.98438 7.72656 10.0547 7.84375 10.1953 7.91406L13.0078 9.60156C13.1953 9.71875 13.3711 9.69531 13.5352 9.53125C13.6992 9.34375 13.6992 9.15625 13.5352 8.96875L12.375 7.5625L13.5352 6.15625C13.6055 6.0625 13.6406 5.96875 13.6406 5.875C13.6406 5.75781 13.6055 5.66406 13.5352 5.59375C13.4648 5.52344 13.3828 5.47656 13.2891 5.45312C13.1953 5.42969 13.1016 5.45312 13.0078 5.52344L10.1953 7.21094ZM4.46484 6.15625L5.625 7.5625L4.46484 8.96875C4.30078 9.15625 4.30078 9.34375 4.46484 9.53125C4.62891 9.69531 4.80469 9.71875 4.99219 9.60156L7.80469 7.91406C7.94531 7.84375 8.01562 7.72656 8.01562 7.5625C8.01562 7.39844 7.94531 7.28125 7.80469 7.21094L4.99219 5.52344C4.80469 5.40625 4.62891 5.44141 4.46484 5.62891C4.30078 5.79297 4.30078 5.96875 4.46484 6.15625ZM11.7773 11.4648C10.8867 10.7383 9.96094 10.375 9 10.375C8.03906 10.375 7.10156 10.7383 6.1875 11.4648C5.29688 12.1914 4.79297 13.082 4.67578 14.1367C4.65234 14.2773 4.66406 14.418 4.71094 14.5586C4.78125 14.6758 4.86328 14.7695 4.95703 14.8398C5.07422 14.8867 5.17969 14.8867 5.27344 14.8398C6.23438 14.4414 7.47656 14.2422 9 14.2422C10.5234 14.2422 11.7656 14.4414 12.7266 14.8398C12.8906 14.9102 13.0312 14.875 13.1484 14.7344C13.2891 14.5703 13.3477 14.3711 13.3242 14.1367C13.207 13.082 12.6914 12.1914 11.7773 11.4648Z" fill="#B8BBBF"/>
</svg>
