<svg width="24" height="24" viewBox="0 0 24 24" fill="none" xmlns="http://www.w3.org/2000/svg">
<path d="M14 1C12.6739 1 11.4021 1.52678 10.4645 2.46447C9.52678 3.40215 9 4.67392 9 6V16C9 17.657 10.343 19 12 19C13.657 19 14.99 17.657 14.99 16V6.995C14.99 6.44548 14.5445 6 13.995 6C13.4455 6 13 6.44548 13 6.995V16C13 16.2652 12.8946 16.5196 12.7071 16.7071C12.5196 16.8946 12.2652 17 12 17C11.7348 17 11.4804 16.8946 11.2929 16.7071C11.1054 16.5196 11 16.2652 11 16V6C11 5.60603 11.0776 5.21593 11.2284 4.85195C11.3791 4.48797 11.6001 4.15726 11.8787 3.87868C12.1573 3.6001 12.488 3.37913 12.8519 3.22836C13.2159 3.0776 13.606 3 14 3C14.394 3 14.7841 3.0776 15.1481 3.22836C15.512 3.37913 15.8427 3.6001 16.1213 3.87868C16.3999 4.15726 16.6209 4.48797 16.7716 4.85195C16.9224 5.21593 17 5.60603 17 6V16.125C17 18.887 14.762 21 12 21C9.238 21 7 18.762 7 16V12C7 11.4477 6.55228 11 6 11C5.44772 11 5 11.4477 5 12V16C5 19.866 8.134 23 12 23C15.866 23 18.99 19.866 18.99 16V6C18.99 3.238 16.762 1 14 1Z" fill="#8D9299"/>
</svg>
