<svg width="24" height="24" viewBox="0 0 24 24" fill="none" xmlns="http://www.w3.org/2000/svg">
<path d="M15.7266 10.7734C16.3125 11.0547 16.8281 11.3828 17.2734 11.7578C17.7188 12.1328 18.0703 12.5898 18.3281 13.1289C18.6094 13.6445 18.75 14.1953 18.75 14.7812C18.75 15.0156 18.668 15.2148 18.5039 15.3789C18.3398 15.543 18.1406 15.625 17.9062 15.625H13.125V19.2812C13.125 19.3281 13.1133 19.375 13.0898 19.4219L12.2461 21.1094C12.1992 21.2031 12.1172 21.25 12 21.25C11.8828 21.25 11.8008 21.2031 11.7539 21.1094L10.9102 19.4219C10.8867 19.375 10.875 19.3281 10.875 19.2812V15.625H6.09375C5.85938 15.625 5.66016 15.543 5.49609 15.3789C5.33203 15.2148 5.25 15.0156 5.25 14.7812C5.25 13.9375 5.53125 13.1641 6.09375 12.4609C6.65625 11.7578 7.38281 11.1953 8.27344 10.7734L8.69531 6.625H7.21875C6.98438 6.625 6.78516 6.54297 6.62109 6.37891C6.45703 6.21484 6.375 6.01563 6.375 5.78125V4.09375C6.375 3.85937 6.45703 3.66016 6.62109 3.49609C6.78516 3.33203 6.98438 3.25 7.21875 3.25H16.7812C17.0156 3.25 17.2148 3.33203 17.3789 3.49609C17.543 3.66016 17.625 3.85937 17.625 4.09375V5.78125C17.625 6.01563 17.543 6.21484 17.3789 6.37891C17.2148 6.54297 17.0156 6.625 16.7812 6.625H15.3047L15.7266 10.7734Z" fill="#00B4C4"/>
</svg>
