<svg width="32" height="32" viewBox="0 0 32 32" fill="none" xmlns="http://www.w3.org/2000/svg">
<path fill-rule="evenodd" clip-rule="evenodd" d="M5.32733 4.26007C5.73599 3.88856 6.36844 3.91868 6.73995 4.32733L26.7399 26.3273C27.1115 26.736 27.0813 27.3684 26.6727 27.7399C26.264 28.1115 25.6316 28.0813 25.2601 27.6727L5.26007 5.67268C4.88856 5.26402 4.91868 4.63157 5.32733 4.26007Z" fill="#EDEDED"/>
<path fill-rule="evenodd" clip-rule="evenodd" d="M28.1618 12.9834C24.9253 9.78176 20.5537 7.99042 16.0012 8.00041L15.9987 8.00041C15.1733 8.00016 14.3488 8.05817 13.5316 8.174C12.9847 8.2515 12.4786 7.87104 12.4011 7.32422C12.3236 6.7774 12.7041 6.27129 13.2509 6.19379C14.1609 6.06481 15.0789 6.00019 15.9981 6.00041C15.9985 6.00041 15.9989 6.00041 15.9993 6.00041L15.999 7.00041L15.9968 6.00041C15.9973 6.00041 15.9977 6.00041 15.9981 6.00041C21.0783 5.98959 25.9567 7.98874 29.5684 11.5616C29.961 11.95 29.9644 12.5831 29.576 12.9758C29.1876 13.3684 28.5544 13.3718 28.1618 12.9834Z" fill="#EDEDED"/>
<path fill-rule="evenodd" clip-rule="evenodd" d="M9.97868 7.97978C10.1878 8.49095 9.94293 9.07485 9.43177 9.28396C7.34231 10.1388 5.44113 11.3957 3.83622 12.9834C3.44359 13.3718 2.81044 13.3684 2.42202 12.9758C2.03361 12.5831 2.03703 11.95 2.42965 11.5616C4.22079 9.78964 6.34258 8.38685 8.6745 7.43287C9.18566 7.22376 9.76956 7.46862 9.97868 7.97978Z" fill="#EDEDED"/>
<path fill-rule="evenodd" clip-rule="evenodd" d="M18.0449 13.1274C18.1788 12.5916 18.7217 12.2658 19.2575 12.3997C21.5478 12.9722 23.6434 14.1469 25.3268 15.802C25.7207 16.1892 25.7261 16.8223 25.3389 17.2162C24.9517 17.61 24.3185 17.6154 23.9247 17.2282C22.4956 15.8232 20.7167 14.826 18.7725 14.34C18.2367 14.2061 17.9109 13.6632 18.0449 13.1274Z" fill="#EDEDED"/>
<path fill-rule="evenodd" clip-rule="evenodd" d="M14.4816 13.0519C14.5922 13.593 14.2431 14.1212 13.702 14.2318C11.5758 14.6662 9.6209 15.7069 8.07337 17.2283C7.67953 17.6154 7.04639 17.61 6.65921 17.2162C6.27202 16.8224 6.27742 16.1892 6.67126 15.802C8.49422 14.0099 10.7971 12.784 13.3017 12.2723C13.8428 12.1617 14.3711 12.5108 14.4816 13.0519Z" fill="#EDEDED"/>
<path fill-rule="evenodd" clip-rule="evenodd" d="M19.4228 21.237C18.4131 20.3975 17.13 19.9585 15.8177 20.0035C14.5054 20.0485 13.2554 20.5744 12.3056 21.4811C11.9061 21.8624 11.2731 21.8477 10.8918 21.4482C10.5104 21.0487 10.5251 20.4157 10.9246 20.0344C12.2294 18.7889 13.9465 18.0665 15.7492 18.0047C17.5519 17.9429 19.3145 18.546 20.7014 19.6992C21.1261 20.0523 21.1841 20.6828 20.831 21.1074C20.478 21.5321 19.8475 21.5901 19.4228 21.237Z" fill="#EDEDED"/>
<path d="M15.9994 26.5C16.8278 26.5 17.4994 25.8284 17.4994 25C17.4994 24.1716 16.8278 23.5 15.9994 23.5C15.171 23.5 14.4994 24.1716 14.4994 25C14.4994 25.8284 15.171 26.5 15.9994 26.5Z" fill="#EDEDED"/>
</svg>
