<svg width="24" height="24" viewBox="0 0 24 24" fill="none" xmlns="http://www.w3.org/2000/svg">
<path d="M5.8125 6.09766C7.52344 4.38672 9.58594 3.53125 12 3.53125C14.4141 3.53125 16.4648 4.38672 18.1523 6.09766C19.8633 7.78516 20.7188 9.83594 20.7188 12.25C20.7188 14.6641 19.8633 16.7266 18.1523 18.4375C16.4648 20.125 14.4141 20.9688 12 20.9688C9.58594 20.9688 7.52344 20.125 5.8125 18.4375C4.125 16.7266 3.28125 14.6641 3.28125 12.25C3.28125 9.83594 4.125 7.78516 5.8125 6.09766ZM8.37891 11.3711C8.61328 11.582 8.88281 11.6875 9.1875 11.6875C9.49219 11.6875 9.75 11.582 9.96094 11.3711C10.1953 11.1367 10.3125 10.8672 10.3125 10.5625C10.3125 10.2578 10.1953 10 9.96094 9.78906C9.75 9.55469 9.49219 9.4375 9.1875 9.4375C8.88281 9.4375 8.61328 9.55469 8.37891 9.78906C8.16797 10 8.0625 10.2578 8.0625 10.5625C8.0625 10.8672 8.16797 11.1367 8.37891 11.3711ZM14.0039 11.3711C14.2383 11.582 14.5078 11.6875 14.8125 11.6875C15.1172 11.6875 15.375 11.582 15.5859 11.3711C15.8203 11.1367 15.9375 10.8672 15.9375 10.5625C15.9375 10.2578 15.8203 10 15.5859 9.78906C15.375 9.55469 15.1172 9.4375 14.8125 9.4375C14.5078 9.4375 14.2383 9.55469 14.0039 9.78906C13.793 10 13.6875 10.2578 13.6875 10.5625C13.6875 10.8672 13.793 11.1367 14.0039 11.3711Z" fill="#8C8C8C"/>
</svg>
