<svg width="24" height="24" viewBox="0 0 24 24" fill="none" xmlns="http://www.w3.org/2000/svg">
<path d="M10.9102 7.85547C9.43359 8.08984 8.14453 8.71094 7.04297 9.71875L3.14062 4.12891C3 3.94141 2.97656 3.75391 3.07031 3.56641C3.1875 3.35547 3.36328 3.25 3.59766 3.25H7.5C7.92188 3.25 8.25 3.4375 8.48438 3.8125L10.9102 7.85547ZM20.4727 3.25C20.707 3.25 20.8711 3.35547 20.9648 3.56641C21.082 3.75391 21.0703 3.94141 20.9297 4.12891L17.0273 9.71875C15.9258 8.71094 14.6367 8.08984 13.1602 7.85547L15.5859 3.8125C15.8203 3.4375 16.1484 3.25 16.5703 3.25H20.4727ZM7.64062 10.7031C8.85938 9.48438 10.3242 8.875 12.0352 8.875C13.7461 8.875 15.1992 9.48438 16.3945 10.7031C17.6133 11.8984 18.2227 13.3516 18.2227 15.0625C18.2227 16.7734 17.6133 18.2266 16.3945 19.4219C15.1992 20.6406 13.7461 21.25 12.0352 21.25C10.3242 21.25 8.85938 20.6406 7.64062 19.4219C6.44531 18.2266 5.84766 16.7734 5.84766 15.0625C5.84766 13.3516 6.44531 11.8984 7.64062 10.7031ZM15.3047 14.3945C15.4219 14.2773 15.4453 14.1484 15.375 14.0078C15.3281 13.8438 15.2227 13.75 15.0586 13.7266L13.2305 13.4453L12.3867 11.793C12.3164 11.6289 12.1992 11.5469 12.0352 11.5469C11.8711 11.5469 11.7539 11.6289 11.6836 11.793L10.8398 13.4453L9.01172 13.7266C8.84766 13.75 8.73047 13.8438 8.66016 14.0078C8.61328 14.1484 8.64844 14.2773 8.76562 14.3945L10.1016 15.6953L9.78516 17.5234C9.76172 17.6875 9.82031 17.8281 9.96094 17.9453C10.1016 18.0391 10.2422 18.0508 10.3828 17.9805L12.0352 17.1016L13.6875 17.9805C13.8281 18.0508 13.9688 18.0391 14.1094 17.9453C14.25 17.8281 14.3086 17.6875 14.2852 17.5234L13.9688 15.6953L15.3047 14.3945Z" fill="#FFA600"/>
</svg>
